<svg width="180" height="30" viewBox="0 0 180 30" fill="none" xmlns="http://www.w3.org/2000/svg">
<path d="M12.4581 13.9805C12.1717 12.1599 11.0978 11.2495 9.23621 11.2495C8.54068 11.2495 7.95766 11.4132 7.48716 11.7405C7.01665 12.0474 6.62797 12.4565 6.32112 12.9679C6.03473 13.4589 5.83016 14.0112 5.70742 14.6249C5.58468 15.2181 5.52331 15.8114 5.52331 16.4046C5.52331 16.9774 5.58468 17.5604 5.70742 18.1537C5.83016 18.7469 6.0245 19.289 6.29044 19.78C6.57683 20.2505 6.95528 20.6392 7.42579 20.946C7.89629 21.2529 8.46908 21.4063 9.14415 21.4063C10.1874 21.4063 10.9853 21.1199 11.5376 20.5471C12.1104 19.9539 12.4684 19.1663 12.6116 18.1844H16.8154C16.529 20.2914 15.7108 21.8973 14.3606 23.0019C13.0105 24.1066 11.2819 24.6589 9.17483 24.6589C7.98835 24.6589 6.89391 24.4646 5.89153 24.0759C4.90961 23.6668 4.07089 23.1042 3.37536 22.3882C2.67983 21.6722 2.13773 20.8233 1.74905 19.8414C1.36037 18.839 1.16603 17.7445 1.16603 16.5581C1.16603 15.3307 1.33991 14.1953 1.68768 13.152C2.0559 12.0883 2.58777 11.1779 3.2833 10.421C3.97883 9.64369 4.82778 9.04022 5.83016 8.61063C6.83254 8.18104 7.97812 7.96624 9.26689 7.96624C10.2079 7.96624 11.108 8.08898 11.9672 8.33446C12.8468 8.57994 13.6242 8.95839 14.2992 9.46981C14.9948 9.96077 15.5573 10.5847 15.9869 11.3416C16.4165 12.078 16.662 12.9577 16.7234 13.9805H12.4581Z" fill="#2E2D22"/>
<path d="M34.1987 14.6248C33.9941 13.5202 33.6259 12.6815 33.094 12.1087C32.5826 11.5359 31.795 11.2495 30.7313 11.2495C30.0357 11.2495 29.4527 11.3722 28.9822 11.6177C28.5322 11.8427 28.1639 12.1291 27.8776 12.4769C27.6116 12.8246 27.4173 13.1929 27.2945 13.5815C27.1923 13.9702 27.1309 14.318 27.1104 14.6248H34.1987ZM27.1104 17.3865C27.1718 18.798 27.5298 19.8208 28.1844 20.455C28.839 21.0892 29.78 21.4062 31.0074 21.4062C31.8871 21.4062 32.644 21.1914 33.2781 20.7619C33.9123 20.3118 34.301 19.8413 34.4442 19.3503H38.2798C37.6661 21.2528 36.7251 22.6132 35.4568 23.4315C34.1884 24.2497 32.6542 24.6589 30.854 24.6589C29.6061 24.6589 28.481 24.4645 27.4786 24.0758C26.4763 23.6667 25.6273 23.0939 24.9318 22.3575C24.2363 21.621 23.6942 20.7414 23.3055 19.7186C22.9373 18.6957 22.7531 17.5706 22.7531 16.3432C22.7531 15.1567 22.9475 14.0521 23.3362 13.0292C23.7248 12.0064 24.2772 11.1267 24.9932 10.3903C25.7091 9.6334 26.5581 9.04016 27.54 8.61056C28.5424 8.18097 29.6471 7.96618 30.854 7.96618C32.2041 7.96618 33.3804 8.23212 34.3828 8.76399C35.3852 9.27541 36.2034 9.97094 36.8376 10.8506C37.4922 11.7302 37.9627 12.7326 38.2491 13.8577C38.5355 14.9828 38.6378 16.1591 38.556 17.3865H27.1104ZM39.115 13.2747C39.1764 12.2519 39.4321 11.4029 39.8821 10.7278C40.3322 10.0528 40.905 9.51066 41.6005 9.10153C42.296 8.69239 43.0734 8.406 43.9326 8.24234C44.8122 8.05823 45.6918 7.96618 46.5715 7.96618C47.3693 7.96618 48.1773 8.02755 48.9956 8.15029C49.8139 8.25257 50.5605 8.46737 51.2356 8.79468C51.9107 9.12198 52.463 9.58226 52.8926 10.1755C53.3222 10.7483 53.537 11.5154 53.537 12.4769V20.7312C53.537 21.4472 53.5779 22.1325 53.6597 22.7871C53.7415 23.4417 53.8847 23.9326 54.0893 24.2599H49.6707C49.5888 24.0145 49.5172 23.769 49.4559 23.5235C49.415 23.2576 49.3843 22.9916 49.3638 22.7257C48.6683 23.4417 47.85 23.9429 46.909 24.2293C45.968 24.5157 45.0065 24.6589 44.0246 24.6589C43.2677 24.6589 42.562 24.5668 41.9073 24.3827C41.2527 24.1986 40.6799 23.9122 40.189 23.5235C39.698 23.1348 39.3093 22.6439 39.0229 22.0506C38.757 21.4574 38.624 20.7516 38.624 19.9334C38.624 19.0333 38.7775 18.2968 39.0843 17.724C39.4116 17.1308 39.8208 16.6603 40.3117 16.3125C40.8231 15.9648 41.3959 15.709 42.0301 15.5454C42.6847 15.3613 43.3393 15.2181 43.9939 15.1158C44.6485 15.0135 45.2929 14.9317 45.9271 14.8703C46.5612 14.8089 47.1238 14.7169 47.6148 14.5942C48.1057 14.4714 48.4944 14.2975 48.7808 14.0725C49.0672 13.827 49.2002 13.4793 49.1797 13.0292C49.1797 12.5587 49.0979 12.1905 48.9342 11.9246C48.791 11.6382 48.5865 11.4234 48.3205 11.2802C48.075 11.1165 47.7784 11.0142 47.4307 10.9733C47.1033 10.9119 46.7454 10.8813 46.3567 10.8813C45.4975 10.8813 44.8224 11.0654 44.3315 11.4336C43.8405 11.8018 43.5541 12.4155 43.4723 13.2747H39.115ZM49.1797 16.4966C48.9956 16.6603 48.7603 16.7932 48.4739 16.8955C48.208 16.9774 47.9114 17.049 47.5841 17.1103C47.2772 17.1717 46.9499 17.2228 46.6022 17.2638C46.2544 17.3047 45.9066 17.3558 45.5589 17.4172C45.2316 17.4785 44.9042 17.5604 44.5769 17.6627C44.2701 17.7649 43.9939 17.9081 43.7484 18.0923C43.5234 18.2559 43.3393 18.4707 43.1961 18.7366C43.0529 19.0026 42.9813 19.3401 42.9813 19.7492C42.9813 20.1379 43.0529 20.4652 43.1961 20.7312C43.3393 20.9971 43.5337 21.2119 43.7791 21.3756C44.0246 21.5187 44.311 21.621 44.6383 21.6824C44.9656 21.7438 45.3032 21.7745 45.6509 21.7745C46.5101 21.7745 47.1749 21.6313 47.6454 21.3449C48.116 21.0585 48.4637 20.7209 48.6887 20.3323C48.9138 19.9231 49.0467 19.514 49.0876 19.1049C49.149 18.6957 49.1797 18.3684 49.1797 18.1229V16.4966Z" fill="#2E2D22"/>
<path d="M18.1916 3.04602C17.8221 9.69664 18.1916 29.6895 18.1916 23.0287C18.1916 16.216 18.425 -4.22045 18.425 2.59216C18.425 7.64333 18.7174 12.6846 19.0215 17.725C19.0616 18.3904 19.4325 27.1547 19.605 21.317C19.7639 15.9402 19.9435 10.5692 20.2534 5.19859C20.602 -0.844145 19.8191 7.95422 19.7995 8.69977C19.728 11.4199 19.7778 14.5437 19.8773 17.2582C19.9485 19.2011 19.8279 24.9269 20.396 23.0676C20.7922 21.771 20.5974 20.3632 20.6553 19.0088C20.8202 15.1581 20.9792 11.3065 21.1222 7.45491C21.1878 5.68655 21.1987 5.31948 21.2259 3.79812C21.2434 2.81708 21.2259 5.76051 21.2259 6.7417C21.2259 12.2877 20.9997 17.9317 21.589 23.4566C21.8467 25.8723 21.6927 18.5984 21.6927 16.1689C21.6927 12.5921 21.6812 9.14218 21.2259 5.61355" stroke="#2E2D22" stroke-width="1.15069" stroke-linecap="round"/>
<path d="M55.4111 9.00866C54.9407 13.9004 55.5474 18.5718 55.6445 23.4283C55.738 28.1049 55.4895 4.73631 55.8779 9.39768C56.1094 12.1756 55.942 15.0106 56.1372 17.8005C56.1379 17.8098 56.7736 25.2118 56.8115 22.3909C56.8727 17.8435 56.9679 13.2967 57.032 8.74931C57.0423 8.01456 57.045 5.81004 57.045 6.54487C57.045 7.39639 57.045 8.24791 57.045 9.09943C57.045 13.7536 57.1199 18.3932 57.408 23.0393C57.6555 27.029 57.4105 21.5653 57.3821 20.796C57.2375 16.8721 57.6156 12.4265 56.63 8.5937C56.5385 8.23787 56.1697 9.20351 56.1113 9.56625C55.8391 11.2578 55.7482 12.9765 55.7482 14.6883C55.7482 17.7217 56.0245 20.7492 56.3188 23.7655C56.4934 25.5552 56.2301 20.1638 56.3707 18.3711C56.6008 15.4344 56.9292 11.4884 59.1716 9.28097C62.8307 5.67908 64.7939 13.1656 65.4218 15.3756C66.0354 17.5349 66.2856 18.864 66.7056 20.9256C67.0232 22.4848 66.8836 20.9749 66.9001 20.5496C67.0148 17.6009 67.4662 13.8839 66.148 11.1353C65.2996 9.36636 63.1324 8.98108 61.5057 9.89043C59.4455 11.0421 58.3525 13.1047 57.2524 15.0774C57.1899 15.1894 56.9082 15.4116 56.9283 15.2848C57.119 14.0768 57.9157 12.9109 58.7307 12.043C60.3722 10.295 63.2604 8.31836 64.7735 11.265C66.4639 14.5569 65.8923 18.7034 65.6034 22.2353C65.543 22.9735 65.3905 25.1901 65.4608 24.4527C65.5817 23.1832 65.6097 21.8731 65.6293 20.6014C65.6736 17.7331 66.0995 13.2752 64.0992 10.8889C62.7813 9.31668 60.217 10.2035 58.9382 11.3428C57.6474 12.4927 55.4044 17.2628 56.0854 15.6739C57.0546 13.4123 59.6775 10.5907 62.3227 10.5907C66.8814 10.5907 66.5597 20.0526 66.939 22.9356C67.3239 25.8608 65.9146 11.1933 65.9146 14.1437" stroke="#2E2D22" stroke-width="1.15069" stroke-linecap="round"/>
<path d="M135.44 11.0529C135.444 11.0141 135.544 8.83756 135.44 10.0446C135.221 12.5732 135.441 15.1569 135.625 17.6793C135.64 17.8863 135.827 20.2441 135.913 20.7867C135.956 21.0591 135.992 20.2393 135.995 19.9636C136.035 16.7388 136.102 13.5158 136.17 10.2915C136.253 6.38574 136.194 18.1051 136.263 22.0111C136.333 25.9524 136.191 20.3222 136.191 20.3031C136.16 16.7942 136.244 13.2577 135.707 9.77705C135.371 7.59517 134.991 10.2669 134.925 10.7648C134.544 13.6559 134.51 16.5997 134.555 19.5108C134.579 21.049 134.658 22.583 134.658 24.1205C134.658 28.2099 134.966 15.8185 136.345 11.9687C137.571 8.54867 142.735 8.72876 144.844 11.0324C148.133 14.6239 148.64 21.6859 143.013 23.1738C141.353 23.6128 139.452 23.5648 137.745 23.5648C136.741 23.5648 136.584 23.5842 137.662 23.2973C141.368 22.3117 150.285 17.5041 145.246 13.0182C142.606 10.669 139.535 10.0547 136.129 10.024C135.38 10.0172 133.928 10.1867 133.382 9.46837C133.212 9.24548 133.288 9.23825 133.228 9.02592C133.095 8.56036 133.255 9.99462 133.3 10.4767C133.535 13.0061 134.108 15.4634 134.617 17.9468C134.911 19.381 135.057 20.1306 135.275 21.5275C135.339 21.9378 135.381 23.1733 135.44 22.7623C135.512 22.2581 135.355 21.7472 135.316 21.2394C135.178 19.4268 135.087 18.151 135.008 16.2799C134.902 13.7842 135.189 6.32321 134.792 8.78927C134.098 13.0917 135.116 17.7472 135.676 22.0009C135.908 23.7607 136.251 23.8118 138.033 23.8118C139.202 23.8118 140.278 23.8163 141.438 23.606C143.506 23.2312 144.737 22.1303 146.552 21.2394" stroke="#2E2D22" stroke-width="1.35717" stroke-linecap="round"/>
<path d="M100.231 12.1507C100.456 11.7715 101.68 10.08 101.68 10.08L102.759 9.02819L104.088 8.1382C106.08 7.49094 106.405 7.46117 107.577 7.50686C109.2 7.57014 110.931 8.24924 112.434 8.82725C113.796 9.35132 114.613 10.2966 115.273 11.5309C116.438 13.7113 116.793 15.1211 116.397 17.5221C116.128 19.1523 115.375 21.6134 114.001 22.6959C111.936 24.3225 108.812 25.1503 106.24 24.3846C103.43 23.5476 100.524 21.1452 99.8715 18.2497C99.6319 17.1856 99.7702 16.0012 99.7702 14.9172C99.7702 13.8937 99.699 13.048 100.231 12.1507Z" stroke="#2E2D22" stroke-width="1.43167" stroke-linecap="round"/>
<path d="M105.155 13.1881C104.671 12.7703 104.832 14.1623 104.842 14.3879C104.846 14.4719 105.043 13.4197 105.086 13.205C105.182 12.727 105.155 14.7711 105.155 14.861" stroke="#2E2D22" stroke-width="1.43167" stroke-linecap="round"/>
<path d="M110.256 12.4105C110.159 12.7924 109.845 13.1323 109.751 13.5186C109.559 14.3022 110.119 12.9368 110.227 12.7896C110.515 12.3939 110.108 14.54 110.108 14.1018C110.108 13.7896 110.677 12.011 110.256 13.1103" stroke="#2E2D22" stroke-width="1.43167" stroke-linecap="round"/>
<path d="M102.355 15.2113C102.355 17.9247 104.061 20.2954 107.077 20.4298C108.635 20.4992 110.365 20.5511 111.651 19.6114C112.818 18.7591 114.008 17.9265 114.26 16.4785" stroke="#2E2D22" stroke-width="1.43167" stroke-linecap="round"/>
<path d="M74.2758 8.87606H78.3876V11.024H78.449C79.0218 10.2057 79.7071 9.57158 80.5049 9.12154C81.3232 8.67149 82.2539 8.44646 83.2972 8.44646C84.2996 8.44646 85.2099 8.6408 86.0282 9.02948C86.8669 9.41816 87.5011 10.1035 87.9307 11.0854C88.4012 10.3899 89.0353 9.77615 89.8332 9.24428C90.6514 8.7124 91.6129 8.44646 92.7176 8.44646C93.5563 8.44646 94.3336 8.54875 95.0496 8.75332C95.7656 8.95788 96.3793 9.28519 96.8907 9.73524C97.4021 10.1853 97.801 10.7785 98.0874 11.515C98.3738 12.231 98.517 13.1004 98.517 14.1232V24.7402H94.1598V15.7495C94.1598 15.2176 94.1393 14.7164 94.0984 14.2459C94.0575 13.7754 93.945 13.3663 93.7608 13.0185C93.5767 12.6708 93.3006 12.3946 92.9323 12.19C92.5846 11.9855 92.1039 11.8832 91.4901 11.8832C90.8764 11.8832 90.3753 12.0059 89.9866 12.2514C89.6184 12.4764 89.3217 12.7833 89.0967 13.172C88.8921 13.5402 88.7489 13.9698 88.6671 14.4607C88.6058 14.9312 88.5751 15.412 88.5751 15.9029V24.7402H84.2178V15.8416C84.2178 15.3711 84.2076 14.9108 84.1871 14.4607C84.1666 13.9902 84.0746 13.5606 83.9109 13.172C83.7677 12.7833 83.512 12.4764 83.1438 12.2514C82.796 12.0059 82.2744 11.8832 81.5789 11.8832C81.3743 11.8832 81.0981 11.9343 80.7504 12.0366C80.4231 12.1184 80.0958 12.2923 79.7685 12.5583C79.4616 12.8037 79.1957 13.172 78.9706 13.6629C78.7456 14.1334 78.6331 14.7574 78.6331 15.5347V24.7402H74.2758V8.87606Z" fill="#2E2D22"/>
<path d="M117.497 8.87606H121.639V11.0854H121.731C122.284 10.1648 123 9.49999 123.879 9.09085C124.759 8.66126 125.659 8.44646 126.58 8.44646C127.746 8.44646 128.697 8.61012 129.433 8.93742C130.19 9.24428 130.783 9.6841 131.213 10.2569C131.643 10.8092 131.939 11.4945 132.103 12.3128C132.287 13.1106 132.379 14.0005 132.379 14.9824V24.7402H128.022V15.7802C128.022 14.471 127.817 13.4993 127.408 12.8651C126.999 12.2105 126.273 11.8832 125.229 11.8832C124.043 11.8832 123.184 12.2412 122.652 12.9572C122.12 13.6527 121.854 14.8085 121.854 16.4246V24.7402H117.497V8.87606Z" fill="#2E2D22"/>
<path d="M148.762 13.2745C148.823 12.2517 149.079 11.4027 149.529 10.7277C149.979 10.0526 150.552 9.51048 151.247 9.10134C151.943 8.69221 152.72 8.40582 153.58 8.24216C154.459 8.05805 155.339 7.966 156.218 7.966C157.016 7.966 157.824 8.02737 158.643 8.15011C159.461 8.25239 160.207 8.46718 160.883 8.79449C161.558 9.1218 162.11 9.58208 162.54 10.1753C162.969 10.7481 163.184 11.5152 163.184 12.4767V20.731C163.184 21.447 163.225 22.1323 163.307 22.7869C163.388 23.4415 163.532 23.9325 163.736 24.2598H159.318C159.236 24.0143 159.164 23.7688 159.103 23.5233C159.062 23.2574 159.031 22.9914 159.011 22.7255C158.315 23.4415 157.497 23.9427 156.556 24.2291C155.615 24.5155 154.653 24.6587 153.672 24.6587C152.915 24.6587 152.209 24.5666 151.554 24.3825C150.9 24.1984 150.327 23.912 149.836 23.5233C149.345 23.1346 148.956 22.6437 148.67 22.0504C148.404 21.4572 148.271 20.7514 148.271 19.9332C148.271 19.0331 148.424 18.2966 148.731 17.7238C149.059 17.1306 149.468 16.6601 149.959 16.3123C150.47 15.9646 151.043 15.7089 151.677 15.5452C152.332 15.3611 152.986 15.2179 153.641 15.1156C154.295 15.0133 154.94 14.9315 155.574 14.8701C156.208 14.8088 156.771 14.7167 157.262 14.594C157.753 14.4712 158.141 14.2973 158.428 14.0723C158.714 13.8268 158.847 13.4791 158.827 13.029C158.827 12.5585 158.745 12.1903 158.581 11.9244C158.438 11.638 158.233 11.4232 157.967 11.28C157.722 11.1163 157.425 11.014 157.078 10.9731C156.75 10.9118 156.392 10.8811 156.004 10.8811C155.144 10.8811 154.469 11.0652 153.978 11.4334C153.487 11.8016 153.201 12.4153 153.119 13.2745H148.762ZM158.827 16.4964C158.643 16.6601 158.407 16.7931 158.121 16.8953C157.855 16.9772 157.558 17.0488 157.231 17.1101C156.924 17.1715 156.597 17.2227 156.249 17.2636C155.901 17.3045 155.554 17.3556 155.206 17.417C154.879 17.4784 154.551 17.5602 154.224 17.6625C153.917 17.7648 153.641 17.908 153.395 18.0921C153.17 18.2557 152.986 18.4705 152.843 18.7365C152.7 19.0024 152.628 19.3399 152.628 19.7491C152.628 20.1377 152.7 20.465 152.843 20.731C152.986 20.9969 153.181 21.2117 153.426 21.3754C153.672 21.5186 153.958 21.6208 154.285 21.6822C154.613 21.7436 154.95 21.7743 155.298 21.7743C156.157 21.7743 156.822 21.6311 157.292 21.3447C157.763 21.0583 158.111 20.7208 158.336 20.3321C158.561 19.9229 158.694 19.5138 158.735 19.1047C158.796 18.6955 158.827 18.3682 158.827 18.1228V16.4964ZM172.243 26.2236C171.772 27.5124 171.118 28.4329 170.279 28.9853C169.44 29.5376 168.274 29.8138 166.781 29.8138C166.331 29.8138 165.881 29.7933 165.431 29.7524C165.001 29.7319 164.561 29.7013 164.111 29.6603V26.0702C164.52 26.1111 164.94 26.152 165.369 26.1929C165.799 26.2338 166.228 26.2441 166.658 26.2236C167.231 26.1622 167.65 25.9372 167.916 25.5485C168.203 25.1599 168.346 24.7303 168.346 24.2598C168.346 23.912 168.284 23.5847 168.162 23.2778L162.608 8.39559H167.241L170.831 19.2581H170.893L174.36 8.39559H178.871L172.243 26.2236Z" fill="#2E2D22"/>
</svg>
