<svg width="178" height="31" viewBox="0 0 178 31" fill="none" xmlns="http://www.w3.org/2000/svg">
<path d="M73.2568 8.24284H77.4421V10.4292H77.5045C78.0876 9.59628 78.7851 8.95079 79.5972 8.49271C80.4301 8.03462 81.3775 7.80558 82.4394 7.80558C83.4597 7.80558 84.3862 8.00339 85.2191 8.39901C86.0728 8.79463 86.7183 9.49217 87.1556 10.4916C87.6345 9.78368 88.28 9.15901 89.092 8.61764C89.9249 8.07626 90.9036 7.80558 92.028 7.80558C92.8817 7.80558 93.6729 7.90969 94.4017 8.11791C95.1305 8.32613 95.7551 8.65928 96.2757 9.11737C96.7962 9.57546 97.2023 10.1793 97.4938 10.9289C97.7853 11.6577 97.931 12.5426 97.931 13.5837V24.3904H93.4959V15.2391C93.4959 14.6977 93.4751 14.1876 93.4335 13.7086C93.3918 13.2297 93.2773 12.8133 93.0899 12.4593C92.9025 12.1053 92.6214 11.8242 92.2466 11.616C91.8926 11.4078 91.4033 11.3037 90.7786 11.3037C90.154 11.3037 89.6438 11.4286 89.2482 11.6785C88.8734 11.9075 88.5715 12.2199 88.3424 12.6155C88.1342 12.9903 87.9885 13.4275 87.9052 13.9273C87.8427 14.4062 87.8115 14.8955 87.8115 15.3952V24.3904H83.3764V15.3328C83.3764 14.8539 83.366 14.3854 83.3451 13.9273C83.3243 13.4484 83.2306 13.0111 83.064 12.6155C82.9183 12.2199 82.658 11.9075 82.2832 11.6785C81.9292 11.4286 81.3983 11.3037 80.6903 11.3037C80.4821 11.3037 80.201 11.3557 79.847 11.4599C79.5139 11.5431 79.1807 11.7201 78.8476 11.9908C78.5352 12.2407 78.2646 12.6155 78.0355 13.1152C77.8065 13.5941 77.6919 14.2292 77.6919 15.0204V24.3904H73.2568V8.24284Z" fill="#2E2D22"/>
<path d="M114.905 8.24278H119.122V10.4916H119.216C119.778 9.55457 120.506 8.87785 121.402 8.46141C122.297 8.02415 123.213 7.80552 124.15 7.80552C125.337 7.80552 126.305 7.97209 127.055 8.30524C127.825 8.61758 128.429 9.06525 128.867 9.64827C129.304 10.2105 129.606 10.908 129.772 11.7409C129.96 12.553 130.053 13.4587 130.053 14.4582V24.3903H125.618V15.2702C125.618 13.9376 125.41 12.9486 124.994 12.3031C124.577 11.6368 123.838 11.3036 122.776 11.3036C121.568 11.3036 120.694 11.668 120.153 12.3968C119.611 13.1047 119.34 14.2812 119.34 15.9261V24.3903H114.905V8.24278ZM142.071 16.2697C142.071 15.6034 142.009 14.9683 141.884 14.3645C141.759 13.7398 141.54 13.1984 141.228 12.7404C140.936 12.2614 140.551 11.8762 140.072 11.5847C139.593 11.2932 138.989 11.1475 138.261 11.1475C137.532 11.1475 136.918 11.2932 136.418 11.5847C135.918 11.8762 135.512 12.2614 135.2 12.7404C134.908 13.2193 134.69 13.771 134.544 14.3957C134.419 14.9996 134.357 15.6346 134.357 16.3009C134.357 16.9256 134.429 17.5503 134.575 18.1749C134.721 18.7996 134.95 19.3618 135.262 19.8615C135.595 20.3404 136.001 20.736 136.48 21.0484C136.98 21.3399 137.574 21.4856 138.261 21.4856C138.989 21.4856 139.593 21.3399 140.072 21.0484C140.572 20.7569 140.968 20.3717 141.259 19.8927C141.551 19.393 141.759 18.8308 141.884 18.2062C142.009 17.5815 142.071 16.936 142.071 16.2697ZM142.134 22.3289H142.071C141.551 23.2035 140.863 23.8385 140.01 24.2342C139.177 24.609 138.229 24.7964 137.168 24.7964C135.96 24.7964 134.898 24.5673 133.982 24.1092C133.066 23.6303 132.306 22.9952 131.702 22.204C131.119 21.3919 130.671 20.4654 130.359 19.4242C130.067 18.3831 129.921 17.3004 129.921 16.176C129.921 15.0933 130.067 14.0521 130.359 13.0527C130.671 12.0324 131.119 11.1371 131.702 10.3666C132.306 9.59622 133.055 8.98196 133.95 8.52388C134.846 8.04497 135.887 7.80552 137.074 7.80552C138.032 7.80552 138.937 8.01374 139.791 8.43018C140.666 8.8258 141.353 9.41923 141.852 10.2105H141.915V2.08985H146.35V24.3903H142.134V22.3289ZM146.704 13.2089C146.766 12.1677 147.027 11.3036 147.485 10.6165C147.943 9.92937 148.526 9.37758 149.234 8.96114C149.942 8.5447 150.733 8.25319 151.607 8.08661C152.503 7.89921 153.398 7.80552 154.294 7.80552C155.106 7.80552 155.928 7.86798 156.761 7.99291C157.594 8.09702 158.354 8.31566 159.041 8.64881C159.728 8.98196 160.29 9.45046 160.728 10.0543C161.165 10.6373 161.383 11.4181 161.383 12.3968V20.7985C161.383 21.5273 161.425 22.2248 161.508 22.8911C161.592 23.5574 161.737 24.0572 161.946 24.3903H157.448C157.365 24.1405 157.292 23.8906 157.229 23.6407C157.188 23.37 157.157 23.0993 157.136 22.8287C156.428 23.5574 155.595 24.0676 154.637 24.3591C153.679 24.6506 152.701 24.7964 151.701 24.7964C150.931 24.7964 150.212 24.7027 149.546 24.5153C148.88 24.3279 148.297 24.0363 147.797 23.6407C147.297 23.2451 146.902 22.7454 146.61 22.1415C146.339 21.5377 146.204 20.8193 146.204 19.9864C146.204 19.0703 146.36 18.3207 146.673 17.7377C147.006 17.1338 147.422 16.6549 147.922 16.3009C148.443 15.947 149.026 15.6867 149.671 15.5201C150.337 15.3327 151.004 15.187 151.67 15.0828C152.336 14.9787 152.992 14.8954 153.638 14.833C154.283 14.7705 154.856 14.6768 155.355 14.5519C155.855 14.4269 156.251 14.25 156.542 14.0209C156.834 13.771 156.969 13.4171 156.948 12.959C156.948 12.4801 156.865 12.1053 156.698 11.8346C156.553 11.5431 156.344 11.3245 156.074 11.1787C155.824 11.0121 155.522 10.908 155.168 10.8664C154.835 10.8039 154.471 10.7727 154.075 10.7727C153.2 10.7727 152.513 10.9601 152.013 11.3349C151.514 11.7097 151.222 12.3343 151.139 13.2089H146.704ZM156.948 16.4883C156.761 16.6549 156.521 16.7903 156.23 16.8944C155.959 16.9777 155.657 17.0505 155.324 17.113C155.012 17.1755 154.679 17.2275 154.325 17.2692C153.971 17.3108 153.617 17.3629 153.263 17.4253C152.93 17.4878 152.597 17.5711 152.263 17.6752C151.951 17.7793 151.67 17.9251 151.42 18.1125C151.191 18.279 151.004 18.4977 150.858 18.7684C150.712 19.039 150.639 19.3826 150.639 19.799C150.639 20.1947 150.712 20.5278 150.858 20.7985C151.004 21.0692 151.201 21.2878 151.451 21.4544C151.701 21.6002 151.993 21.7043 152.326 21.7667C152.659 21.8292 153.003 21.8604 153.357 21.8604C154.231 21.8604 154.908 21.7147 155.387 21.4232C155.866 21.1317 156.22 20.7881 156.449 20.3925C156.678 19.976 156.813 19.5596 156.855 19.1431C156.917 18.7267 156.948 18.3936 156.948 18.1437V16.4883ZM169.979 26.3892C169.5 27.701 168.834 28.638 167.98 29.2002C167.127 29.7624 165.94 30.0435 164.42 30.0435C163.962 30.0435 163.504 30.0227 163.046 29.9811C162.608 29.9602 162.161 29.929 161.703 29.8874V26.2331C162.119 26.2747 162.546 26.3164 162.983 26.358C163.42 26.3997 163.858 26.4101 164.295 26.3892C164.878 26.3268 165.305 26.0977 165.576 25.7021C165.867 25.3065 166.013 24.8692 166.013 24.3903C166.013 24.0363 165.95 23.7032 165.825 23.3909L160.172 8.24278H164.888L168.543 19.2993H168.605L172.134 8.24278H176.726L169.979 26.3892Z" fill="#2E2D22"/>
<path d="M99.9913 9.62197C99.9884 9.60262 98.0769 11.892 97.8382 12.2883C97.2733 13.2263 97.3488 14.1102 97.3488 15.1801C97.3488 16.3131 97.202 17.5511 97.4565 18.6632C98.149 21.6898 101.235 24.2008 104.219 25.0757C106.95 25.8761 110.268 25.0109 112.46 23.3106C113.919 22.1792 114.719 19.6068 115.005 17.9028C115.425 15.3931 115.048 13.9195 113.811 11.6405C113.11 10.3504 112.243 9.36232 110.796 8.81455C109.201 8.21038 107.362 7.50057 105.638 7.43441C104.394 7.38666 102.928 7.40453 101.812 8.00712C99.6318 9.18341 98.2924 11.4895 96.8203 13.3399" stroke="#2E2D22" stroke-width="1.56166" stroke-linecap="round"/>
<path d="M103.034 12.9441C103.024 12.9368 103.015 12.9302 103.006 12.9244C103.001 12.9374 102.995 12.9586 102.989 12.9891C102.941 13.2285 102.721 14.4018 102.717 14.3081C102.706 14.0665 102.54 12.6249 103.006 12.9244C103.017 12.8967 103.026 12.9063 103.034 12.9441Z" fill="#2E2D22"/>
<path d="M103.066 12.9703C102.527 12.5044 102.706 14.0566 102.717 14.3081C102.721 14.4018 102.941 13.2285 102.989 12.9891C103.096 12.4562 103.066 14.7354 103.066 14.8357" stroke="#2E2D22" stroke-width="1.56166" stroke-linecap="round"/>
<path d="M108.814 12.9652C108.826 12.8558 108.834 12.7553 108.834 12.6739C108.991 12.2865 108.92 12.5626 108.814 12.9652C108.755 13.5141 108.587 14.2864 108.587 13.9887C108.587 13.8318 108.716 13.3428 108.814 12.9652Z" fill="#2E2D22"/>
<path d="M108.753 12.1028C108.644 12.5287 108.294 12.9076 108.189 13.3384C107.975 14.2121 108.6 12.6896 108.72 12.5255C109.041 12.0844 108.587 14.4773 108.587 13.9887C108.587 13.6406 109.222 11.6574 108.753 12.8832" stroke="#2E2D22" stroke-width="1.56166" stroke-linecap="round"/>
<path d="M99.9453 15.2261C99.9453 18.2516 101.847 20.895 105.21 21.0449C106.947 21.1223 108.876 21.1801 110.311 20.1323C111.611 19.182 112.939 18.2537 113.219 16.6391" stroke="#2E2D22" stroke-width="1.56166" stroke-linecap="round"/>
<path d="M12.6807 13.5369C12.3892 11.6837 11.296 10.7571 9.40118 10.7571C8.69323 10.7571 8.0998 10.9237 7.62089 11.2569C7.14198 11.5692 6.74636 11.9856 6.43403 12.5062C6.14252 13.0059 5.9343 13.5681 5.80937 14.1928C5.68443 14.7966 5.62197 15.4005 5.62197 16.0043C5.62197 16.5873 5.68443 17.1808 5.80937 17.7846C5.9343 18.3884 6.13211 18.9402 6.4028 19.44C6.69431 19.9189 7.07951 20.3145 7.55842 20.6268C8.03733 20.9392 8.62035 21.0953 9.30748 21.0953C10.3694 21.0953 11.1815 20.8038 11.7437 20.2208C12.3267 19.6169 12.6911 18.8153 12.8368 17.8158H17.1158C16.8243 19.9605 15.9914 21.595 14.6171 22.7194C13.2429 23.8438 11.4834 24.406 9.33871 24.406C8.13103 24.406 7.01705 24.2082 5.99677 23.8126C4.9973 23.3962 4.1436 22.8236 3.43565 22.0948C2.7277 21.366 2.17591 20.5019 1.78029 19.5024C1.38467 18.4821 1.18686 17.3682 1.18686 16.1605C1.18686 14.9112 1.36385 13.7555 1.71782 12.6936C2.09262 11.6108 2.634 10.6843 3.34195 9.91385C4.0499 9.12261 4.91402 8.50836 5.9343 8.07109C6.95458 7.63383 8.12062 7.4152 9.43241 7.4152C10.3902 7.4152 11.3064 7.54013 12.1809 7.78999C13.0763 8.03986 13.8675 8.42507 14.5546 8.94562C15.2626 9.44535 15.8352 10.0804 16.2725 10.8508C16.7097 11.6004 16.9596 12.4958 17.0221 13.5369H12.6807Z" fill="#2E2D22"/>
<path d="M34.0284 14.1928C33.8202 13.0684 33.4454 12.2147 32.904 11.6317C32.3834 11.0487 31.5818 10.7571 30.499 10.7571C29.7911 10.7571 29.1977 10.8821 28.7187 11.1319C28.2607 11.361 27.8859 11.6525 27.5944 12.0065C27.3237 12.3604 27.1259 12.7352 27.0009 13.1309C26.8968 13.5265 26.8343 13.8805 26.8135 14.1928H34.0284ZM26.8135 17.0038C26.876 18.4405 27.2404 19.4816 27.9067 20.1271C28.573 20.7726 29.5308 21.0953 30.7801 21.0953C31.6755 21.0953 32.4459 20.8767 33.0914 20.4394C33.7369 19.9813 34.1325 19.5024 34.2782 19.0027H38.1824C37.5577 20.9392 36.5999 22.3238 35.3089 23.1567C34.018 23.9896 32.4563 24.406 30.624 24.406C29.3538 24.406 28.2086 24.2082 27.1883 23.8126C26.168 23.3962 25.3039 22.8131 24.596 22.0635C23.888 21.3139 23.3362 20.4186 22.9406 19.3775C22.5658 18.3364 22.3784 17.1912 22.3784 15.9418C22.3784 14.7342 22.5762 13.6098 22.9718 12.5687C23.3675 11.5276 23.9297 10.6322 24.6584 9.88261C25.3872 9.1122 26.2513 8.50836 27.2508 8.07109C28.2711 7.63383 29.3955 7.4152 30.624 7.4152C31.9982 7.4152 33.1955 7.68588 34.2158 8.22726C35.2361 8.74781 36.069 9.45576 36.7144 10.3511C37.3807 11.2465 37.8597 12.2667 38.1512 13.412C38.4427 14.5572 38.5468 15.7544 38.4635 17.0038H26.8135ZM39.0325 12.8185C39.095 11.7774 39.3553 10.9133 39.8133 10.2262C40.2714 9.53905 40.8545 8.98726 41.5624 8.57082C42.2704 8.15438 43.0616 7.86287 43.9361 7.69629C44.8315 7.5089 45.7268 7.4152 46.6222 7.4152C47.4342 7.4152 48.2567 7.47766 49.0896 7.60259C49.9225 7.7067 50.6825 7.92534 51.3696 8.25849C52.0567 8.59164 52.6189 9.06014 53.0562 9.66398C53.4935 10.247 53.7121 11.0278 53.7121 12.0065V20.4082C53.7121 21.137 53.7537 21.8345 53.837 22.5008C53.9203 23.1671 54.0661 23.6668 54.2743 24H49.7767C49.6934 23.7501 49.6206 23.5003 49.5581 23.2504C49.5164 22.9797 49.4852 22.709 49.4644 22.4383C48.7564 23.1671 47.9236 23.6773 46.9657 23.9688C46.0079 24.2603 45.0293 24.406 44.0298 24.406C43.2594 24.406 42.541 24.3123 41.8747 24.1249C41.2084 23.9375 40.6254 23.646 40.1257 23.2504C39.626 22.8548 39.2303 22.3551 38.9388 21.7512C38.6681 21.1474 38.5328 20.429 38.5328 19.5961C38.5328 18.68 38.689 17.9304 39.0013 17.3473C39.3344 16.7435 39.7509 16.2646 40.2506 15.9106C40.7712 15.5566 41.3542 15.2964 41.9997 15.1298C42.666 14.9424 43.3323 14.7966 43.9986 14.6925C44.6649 14.5884 45.3208 14.5051 45.9663 14.4427C46.6118 14.3802 47.1844 14.2865 47.6841 14.1616C48.1838 14.0366 48.5795 13.8596 48.871 13.6306C49.1625 13.3807 49.2978 13.0268 49.277 12.5687C49.277 12.0898 49.1937 11.715 49.0271 11.4443C48.8814 11.1528 48.6732 10.9341 48.4025 10.7884C48.1526 10.6218 47.8507 10.5177 47.4967 10.476C47.1636 10.4136 46.7992 10.3823 46.4035 10.3823C45.529 10.3823 44.8419 10.5697 44.3422 10.9445C43.8424 11.3193 43.5509 11.944 43.4676 12.8185H39.0325ZM49.277 16.098C49.0896 16.2646 48.8501 16.3999 48.5586 16.504C48.2879 16.5873 47.986 16.6602 47.6529 16.7227C47.3405 16.7851 47.0074 16.8372 46.6534 16.8788C46.2994 16.9205 45.9455 16.9725 45.5915 17.035C45.2583 17.0975 44.9252 17.1808 44.592 17.2849C44.2797 17.389 43.9986 17.5347 43.7487 17.7221C43.5197 17.8887 43.3323 18.1073 43.1865 18.378C43.0408 18.6487 42.9679 18.9923 42.9679 19.4087C42.9679 19.8043 43.0408 20.1375 43.1865 20.4082C43.3323 20.6789 43.5301 20.8975 43.78 21.0641C44.0298 21.2098 44.3213 21.3139 44.6545 21.3764C44.9876 21.4389 45.3312 21.4701 45.6852 21.4701C46.5597 21.4701 47.2364 21.3244 47.7153 21.0329C48.1942 20.7413 48.5482 20.3978 48.7773 20.0022C49.0063 19.5857 49.1417 19.1693 49.1833 18.7528C49.2458 18.3364 49.277 18.0032 49.277 17.7534V16.098Z" fill="#2E2D22"/>
<path d="M20.1408 5.02922C19.9494 8.34598 19.8069 11.6629 19.6882 14.9811C19.7068 15.7751 19.7305 16.555 19.758 17.3042C19.8305 19.2818 19.7077 25.1099 20.286 23.2174C20.6892 21.8977 20.4909 20.4647 20.5499 19.0861C20.7177 15.1666 20.8796 11.2462 21.0251 7.32584C21.0919 5.52589 21.103 5.15227 21.1307 3.60374C21.1437 2.87446 21.1377 4.27578 21.1335 5.47365C21.5942 9.05763 21.6059 12.5622 21.6059 16.1955C21.6059 18.6684 21.7626 26.0722 21.5003 23.6133C20.9004 17.9897 21.1307 12.2449 21.1307 6.5999C21.1307 6.33056 21.132 5.91598 21.1335 5.47365C21.1377 4.27578 21.1437 2.87446 21.1307 3.60374C21.103 5.15227 21.0919 5.52589 21.0251 7.32584C20.8796 11.2462 20.7177 15.1666 20.5499 19.0861C20.4909 20.4647 20.6892 21.8977 20.286 23.2174C19.7077 25.1099 19.8305 19.2818 19.758 17.3042C19.7305 16.555 19.7068 15.7751 19.6882 14.9811C19.6383 12.847 19.6258 10.6109 19.6788 8.59293C19.6987 7.83407 20.4956 -1.12145 20.1408 5.02922Z" fill="#2E2D22"/>
<path d="M18.0421 2.8382C17.6661 9.60761 18.0421 29.9576 18.0421 23.1778C18.0421 16.2435 18.2797 -4.55806 18.2797 2.37624C18.2797 7.51762 18.5774 12.6489 18.8869 17.7794C18.9277 18.4567 19.3052 27.3775 19.4808 21.4355C19.6426 15.9627 19.8254 10.4958 20.1408 5.02922C20.4956 -1.12145 19.6987 7.83407 19.6788 8.59293C19.6061 11.3617 19.6567 14.5413 19.758 17.3042C19.8305 19.2818 19.7077 25.1099 20.286 23.2174C20.6892 21.8977 20.4909 20.4647 20.5499 19.0861C20.7177 15.1666 20.8796 11.2462 21.0251 7.32584C21.0919 5.52589 21.103 5.15227 21.1307 3.60374C21.1485 2.60518 21.1307 5.60118 21.1307 6.5999C21.1307 12.2449 20.9004 17.9897 21.5003 23.6133C21.7626 26.0722 21.6059 18.6684 21.6059 16.1955C21.6059 12.5547 21.5941 9.04324 21.1307 5.45159" stroke="#2E2D22" stroke-width="1.17124" stroke-linecap="round"/>
<path d="M56.6522 22.5262C56.6275 24.3624 56.354 21.9431 56.1598 19.9577C56.1529 22.2332 56.2913 25.3664 56.1507 23.9253C55.8511 20.8551 55.5699 17.7736 55.5699 14.6861C55.5699 13.3221 55.6266 11.9539 55.7841 10.598C55.8278 10.2218 55.8793 9.84647 55.9395 9.47247C55.9989 9.10325 56.3743 8.12036 56.4674 8.48255C56.6281 9.1072 56.7531 9.74783 56.8504 10.3997C56.8596 9.81346 56.8683 9.22721 56.8766 8.64094C56.8871 7.89306 56.8898 5.64916 56.8898 6.39712V8.99731C56.8898 9.56531 56.8909 10.1331 56.8933 10.7007C56.9822 11.3547 57.0447 12.0192 57.0886 12.6895C57.4968 11.3491 58.1082 10.1135 59.0544 9.18209C60.6347 7.62651 61.9042 8.10285 62.891 9.33869C64.204 9.20171 65.5309 9.76723 66.1555 11.0695C67.4972 13.8672 67.0377 17.6506 66.921 20.652C66.9085 20.9723 66.9831 21.897 66.8918 21.7135C67.0269 23.1905 67.0832 24.0123 66.9606 23.0806C66.9064 22.6689 66.8663 22.1254 66.8245 21.4953C66.7973 21.3859 66.7639 21.2353 66.723 21.0347C66.4375 19.6333 66.2291 18.5644 65.9361 17.3543C65.9179 19.0616 65.7313 20.776 65.6011 22.3678C65.5957 22.4341 65.5895 22.5121 65.5829 22.5987C65.5579 23.2777 65.5195 23.9568 65.4559 24.6248C65.3907 25.3091 65.514 23.4939 65.5829 22.5987C65.6062 21.9643 65.6178 21.33 65.6275 20.7048C65.6469 19.4443 65.7388 17.8824 65.6731 16.3187C65.5945 16.023 65.5095 15.7137 65.4163 15.3856C65.1516 14.4541 64.6539 12.6015 63.897 11.0108C63.4346 10.6942 62.8944 10.5152 62.2618 10.5152C61.278 10.5152 60.2972 10.8986 59.4005 11.4976C58.5148 12.5282 57.8432 13.749 57.177 14.9455C57.2137 16.9685 57.1627 18.9961 57.233 20.9028C57.2618 21.6859 57.5112 27.2471 57.2594 23.1862C57.0952 20.539 56.999 17.8939 56.9462 15.2471C56.8535 15.322 56.759 15.3691 56.771 15.2932C56.8063 15.0695 56.862 14.8473 56.9346 14.628C56.9308 14.4127 56.9273 14.1973 56.9241 13.9819C56.8776 14.0624 56.8318 14.1422 56.7869 14.2211C56.7391 16.9894 56.6895 19.7577 56.6522 22.5262Z" fill="#2E2D22"/>
<path d="M55.2267 8.90492C54.748 13.8841 55.3654 18.6389 55.4643 23.5821C55.5595 28.3423 55.3065 4.55625 55.7019 9.30088C55.9375 12.1284 55.7671 15.014 55.9659 17.8538C55.9665 17.8632 56.6136 25.3975 56.6522 22.5262C56.7145 17.8976 56.8114 13.2696 56.8766 8.64094C56.8871 7.89306 56.8898 5.64916 56.8898 6.39712C56.8898 7.26385 56.8898 8.13058 56.8898 8.99731C56.8898 13.7347 56.9661 18.4571 57.2594 23.1862C57.5112 27.2471 57.2618 21.6859 57.233 20.9028C57.0858 16.9088 57.4706 12.3838 56.4674 8.48255C56.3743 8.12036 55.9989 9.10325 55.9395 9.47247C55.6624 11.1943 55.5699 12.9436 55.5699 14.6861C55.5699 17.7736 55.8511 20.8551 56.1507 23.9253C56.3284 25.747 56.0604 20.2593 56.2035 18.4345C56.4377 15.4454 56.7719 11.4289 59.0544 9.18209C62.7788 5.51587 64.7772 13.1361 65.4163 15.3856C66.0408 17.5834 66.2955 18.9362 66.723 21.0347C67.0463 22.6218 66.9042 21.0849 66.921 20.652C67.0377 17.6506 67.4972 13.8672 66.1555 11.0695C65.2919 9.26901 63.086 8.87685 61.4302 9.80244C59.3332 10.9747 58.2207 13.0742 57.101 15.082C57.0374 15.1961 56.7506 15.4222 56.771 15.2932C56.9652 14.0636 57.7761 12.8768 58.6057 11.9935C60.2765 10.2142 63.2162 8.20228 64.7564 11.2015C66.477 14.5523 65.8951 18.7728 65.6011 22.3678C65.5396 23.1192 65.3844 25.3753 65.4559 24.6248C65.579 23.3326 65.6075 21.9991 65.6275 20.7048C65.6726 17.7852 66.106 13.2477 64.07 10.8188C62.7286 9.21844 60.1185 10.1211 58.8168 11.2807C57.503 12.4512 55.2199 17.3065 55.9131 15.6892C56.8997 13.3872 59.5694 10.5152 62.2618 10.5152C66.9019 10.5152 66.5745 20.1461 66.9606 23.0806C67.3524 26.0581 65.9179 11.1286 65.9179 14.1317" stroke="#2E2D22" stroke-width="1.17124" stroke-linecap="round"/>
</svg>
