<svg width="231" height="86" viewBox="0 0 231 86" fill="none" xmlns="http://www.w3.org/2000/svg">
<ellipse cx="117.448" cy="44.9481" rx="101.929" ry="23.7368" transform="rotate(-3.98025 117.448 44.9481)" fill="#EEE9D8"/>
<path d="M130.406 13.885C103.515 15.5134 75.8879 20.436 50.362 27.8549M50.362 27.8549C37.4999 31.5932 7.97467 38.9871 10.0312 54.3302C10.9836 61.4361 16.0997 63.9852 24.1534 66.2746C48.2896 73.1356 77.7358 71.8714 102.946 71.2394C135.9 70.4133 170.412 67.1579 202.405 59.6343C209.189 58.0389 232.165 53.1544 229.627 43.4162C225.876 29.0285 186.975 23.5767 174.134 21.6539C157.339 19.1389 144.273 18.3816 127.056 18.6495C103.222 19.0203 73.9606 23.4145 50.362 27.8549Z" stroke="#2A2828" stroke-width="2"/>
<path d="M121.455 13.4517C94.772 17.1737 67.6136 24.2373 42.7446 33.6256M42.7446 33.6256C30.2134 38.3562 1.35529 48.0317 4.60287 63.1675C6.10695 70.1775 11.4064 72.3195 19.6142 73.9734C44.2122 78.9299 73.47 75.3716 98.5537 72.7742C131.343 69.3788 165.496 63.44 196.804 53.4426C203.443 51.3227 225.968 44.6601 222.677 35.1497C217.815 21.0985 178.607 18.6992 165.655 17.7843C148.715 16.5878 135.63 16.8523 118.486 18.4631C94.7537 20.6927 65.9247 27.3571 42.7446 33.6256Z" stroke="#2A2828"/>
</svg>
