<svg width="253" height="74" viewBox="0 0 253 74" fill="none" xmlns="http://www.w3.org/2000/svg">
<path opacity="0.8" d="M1.04414 11.9319C1.4914 22.2876 -1.73015 35.3853 11.5727 40.5603C23.2534 45.1041 52.1865 38.8101 52.9773 22.4014C53.3734 14.1829 42.5976 10.0995 37.0661 8.97448C25.7606 6.67506 16.7926 14.1765 15.3583 25.5363C11.4923 56.1547 52.5064 67.9067 74.8034 55.6434C87.6344 48.5863 91.2666 31.8809 84.918 19.1482C78.7137 6.70497 65.4358 7.50733 57.1178 16.9005C50.0131 24.9235 46.7428 34.761 48.3045 45.5288C51.1261 64.9827 69.6137 74.6798 88.2304 71.9094C109.217 68.7864 128.289 51.5235 129.339 29.6176C129.595 24.2727 128.4 18.4758 125.376 14.0613C121.167 7.91783 109.852 5.51585 104.437 11.9319C97.7512 19.8551 102.675 33.5902 106.803 40.442C117.394 58.0195 137.299 72.6283 158.796 68.8928C178.367 65.4919 188.323 47.7995 195.882 31.5695C196.686 29.8449 204.352 2.34487 207.416 1.04846C208.383 0.639559 208.358 2.92539 208.777 3.88763C210.015 6.73152 210.846 9.77137 212.385 12.4643C216.317 19.3456 225.582 32.6378 235.867 28.2572C240.671 26.2112 241.917 19.4057 242.61 15.2443C243.378 10.6377 242.188 4.50483 244.917 14.5345C249.541 31.5322 260.705 64.3856 233.501 67.4141C217.333 69.2139 193.536 65.4211 179.38 57.0038C165.271 48.6147 178.425 37.1487 186.063 30.2683C188.894 27.7186 206.253 14.4843 210.078 11.8136C216.71 7.18379 221.314 2.66663 224.333 11.9911C228.569 25.0754 231.552 38.1298 236.695 50.9705C241.929 64.0355 237.084 55.2257 227.113 49.551C211.842 40.8601 202.608 37.9535 185.235 33.2849C182.773 32.6232 142.446 27.4091 140.755 20.5678C140.303 18.7379 144.312 18.9898 146.197 19.0299C158.819 19.2984 177.891 24.1677 188.903 27.015C208.443 32.0677 226.032 39.3682 244.858 46.002" stroke="#2A2828" stroke-width="2" stroke-linecap="round"/>
</svg>
