<svg width="244" height="15" viewBox="0 0 244 15" fill="none" xmlns="http://www.w3.org/2000/svg">
<path opacity="0.8" d="M1 1.66872C71.7363 -1.34134 142.705 6.90213 213.508 4.91467C216.086 4.8423 218.771 5.07092 221.218 4.25534C222.166 3.93919 219.374 3.37425 218.377 3.29169C206.366 2.29648 190.324 2.96523 179.02 3.596C159.321 4.69525 131.191 7.3311 111.667 8.76924C102.07 9.47614 92.4685 10.14 82.8588 10.6458C76.4059 10.9854 69.9462 11.2536 63.4846 11.3051C61.4502 11.3213 58.173 12.7299 57.3984 10.8487C56.6974 9.14616 60.9471 9.80535 62.7745 9.58072C69.076 8.80617 75.4061 8.24566 81.743 7.85631C106.071 6.36159 121.434 6.37478 146.459 6.58836C176.188 6.8421 205.99 8.60516 235.723 7.70416C253.796 7.15649 199.606 9.53019 181.556 10.5951C175.42 10.9571 157.006 11.357 163.145 11.6602C189.608 12.9669 216.455 12.9824 242.925 13.5367" stroke="#2A2828" stroke-width="2" stroke-linecap="round"/>
</svg>
