<svg viewBox="0 0 112 67" fill="none" xmlns="http://www.w3.org/2000/svg">
<path d="M68.9142 59.462C68.9322 60.812 68.8602 62.216 67.5102 62.216C67.0422 62.216 66.6462 61.928 66.4842 61.19C66.4482 61.046 66.2502 61.01 66.1602 61.136C65.6922 61.856 65.1522 62.216 64.4322 62.216C62.7762 62.216 61.6602 60.398 61.6602 57.716C61.6602 54.746 63.0642 52.388 64.7922 52.388C65.2962 52.388 65.6562 52.532 66.0882 52.982C66.1962 53.09 66.3582 53.018 66.3582 52.874V50.156C66.3582 49.274 65.9262 49.058 65.6022 49.004C65.4402 48.986 65.3502 48.824 65.3862 48.662C65.4042 48.554 65.4942 48.482 65.6202 48.464C65.9442 48.41 66.5922 48.23 67.3482 47.744C67.4022 47.69 67.4922 47.69 67.5642 47.762C67.6002 47.798 67.6182 47.852 67.6182 47.906V59.624C67.6182 60.578 67.7622 61.028 68.0862 61.028C68.4822 61.028 68.6082 60.2 68.6262 59.462C68.6262 59.39 68.6622 59.336 68.7342 59.318C68.8242 59.3 68.9142 59.372 68.9142 59.462ZM66.3582 59.714V55.052C66.3582 53.954 65.6382 52.964 64.8282 52.964C63.6942 52.964 62.9562 54.512 62.9562 56.888C62.9562 59.462 63.7662 61.136 65.0262 61.136C65.7642 61.136 66.3582 60.398 66.3582 59.714ZM73.5643 52.37C74.0683 52.37 74.4643 52.73 74.4643 53.486C74.4643 54.062 74.1583 54.422 73.7983 54.422C73.2583 54.422 73.4023 53.612 72.8083 53.612C72.3763 53.612 71.7463 54.62 71.7463 55.754V59.93C71.7463 61.028 71.9623 61.388 72.8083 61.478C72.9343 61.496 73.0423 61.622 73.0243 61.766C73.0063 61.91 72.8983 62 72.7543 62H69.7123C69.5503 62 69.4063 61.856 69.4243 61.694C69.4423 61.568 69.5323 61.478 69.6403 61.442C70.3963 61.226 70.4863 61.01 70.4863 60.056V54.818C70.4863 53.918 70.0543 53.72 69.7303 53.666C69.5683 53.63 69.4783 53.486 69.5143 53.324C69.5323 53.216 69.6223 53.144 69.7483 53.126C70.0723 53.054 70.7203 52.892 71.4763 52.406C71.5303 52.352 71.6203 52.352 71.6923 52.406C71.7283 52.46 71.7463 52.514 71.7463 52.568V53.792C71.7463 53.936 71.9263 53.99 71.9983 53.864C72.6103 52.73 73.0063 52.37 73.5643 52.37ZM81.0809 59.444C81.0989 60.812 81.0269 62.216 79.6769 62.216C79.2089 62.216 78.7949 61.91 78.6329 61.136C78.5969 60.974 78.3989 60.938 78.3089 61.064C77.6249 62 76.9769 62.216 76.4009 62.216C75.4649 62.216 74.8169 61.406 74.8169 60.038C74.8169 58.94 75.2849 58.13 75.8609 57.59C76.2929 57.176 76.8329 56.798 78.3449 56.006C78.4889 55.934 78.5789 55.79 78.5789 55.646V54.764C78.5789 53.468 78.0749 52.874 77.4089 52.874C76.7969 52.874 76.3469 53.342 76.3469 53.9C76.3469 54.278 76.4369 54.368 76.4369 54.782C76.4369 55.178 76.3109 55.628 75.7529 55.628C75.3389 55.628 74.9969 55.232 74.9969 54.674C74.9969 53.036 76.7069 52.37 77.5889 52.37C78.4349 52.37 79.0109 52.712 79.3709 53.306C79.7309 53.918 79.7849 54.368 79.7849 55.628V59.642C79.7849 60.596 79.9289 61.01 80.2529 61.01C80.6489 61.01 80.7749 60.2 80.7749 59.462C80.7929 59.39 80.8289 59.318 80.9009 59.3C80.9909 59.3 81.0629 59.354 81.0809 59.444ZM78.5789 59.03V56.726C78.5789 56.564 78.4169 56.474 78.2729 56.546C77.0309 57.194 76.1489 57.896 76.1489 59.39C76.1489 60.488 76.5989 60.992 77.1749 60.992C77.9489 60.992 78.5789 59.876 78.5789 59.03ZM86.7095 52.37C87.6095 52.37 88.2755 52.91 88.2755 53.666C88.2755 54.152 88.0055 54.53 87.6455 54.53C86.6195 54.53 87.0875 52.838 86.4935 52.838C86.1155 52.856 85.8995 53.27 86.0795 53.576C86.4575 54.188 86.6375 54.962 86.6375 55.646C86.6375 56.978 85.9175 58.886 84.2795 58.886C84.0995 58.886 83.9195 58.868 83.7755 58.832C83.5595 58.796 83.3255 58.886 83.1815 59.048C82.8575 59.426 82.5335 59.894 82.5335 60.092C82.5335 60.506 82.8575 60.632 83.7035 60.668C84.5855 60.704 85.6295 60.794 85.6295 60.794C86.7455 60.848 87.4475 61.73 87.4475 63.026C87.4475 65.042 85.4675 66.572 83.5415 66.572C82.1015 66.572 80.9495 65.654 80.9495 64.538C80.9495 63.854 81.2915 63.08 82.3715 62.378C82.5155 62.27 82.4975 62.054 82.3355 61.982C81.7955 61.712 81.6335 61.334 81.6335 60.866C81.6335 60.146 82.3715 59.354 83.0015 58.814C83.0915 58.742 83.0735 58.616 82.9835 58.544C81.8855 57.86 81.5615 57.032 81.5615 55.79C81.5615 53.882 82.6775 52.37 84.0815 52.37C84.5855 52.37 85.0175 52.532 85.3775 52.784C85.4675 52.856 85.5935 52.838 85.6835 52.766C85.9895 52.514 86.3135 52.37 86.7095 52.37ZM84.3515 58.364C85.0355 58.364 85.4675 57.626 85.4675 56.474C85.4675 55.592 85.2155 52.964 83.9195 52.964C83.2355 52.964 82.8035 53.756 82.8035 54.998C82.8035 56.996 83.4335 58.364 84.3515 58.364ZM83.7035 62.252C82.9475 62.18 82.2455 62.666 82.0475 63.404C82.0115 63.548 81.9935 63.692 81.9935 63.854C81.9935 64.772 82.8575 65.384 84.1715 65.384C85.8995 65.384 87.0335 64.556 87.0335 63.35C87.0335 62.576 86.5475 62.324 85.1795 62.324C84.7655 62.324 84.2075 62.306 83.7035 62.252ZM104.775 61.46C104.883 61.496 104.955 61.586 104.973 61.694C104.991 61.856 104.865 62 104.703 62H101.967C101.823 62 101.697 61.874 101.697 61.73V61.712C101.697 61.586 101.787 61.496 101.913 61.46C102.561 61.316 102.669 61.028 102.669 59.93V55.808C102.669 54.152 102.381 53.45 101.517 53.45C100.815 53.45 99.915 54.458 99.915 55.61V59.822C99.915 61.064 100.095 61.406 100.761 61.478C100.887 61.496 100.995 61.604 100.995 61.73V61.748C100.995 61.892 100.869 62 100.725 62H97.881C97.737 62 97.611 61.856 97.629 61.694C97.647 61.568 97.737 61.496 97.863 61.478C98.511 61.37 98.655 61.154 98.655 60.02V55.79C98.655 54.332 98.313 53.45 97.665 53.45C96.981 53.45 95.883 54.278 95.883 55.61V60.344C95.883 61.154 96.063 61.406 96.675 61.478C96.819 61.496 96.909 61.622 96.909 61.766C96.891 61.892 96.765 62 96.621 62H93.759C93.615 62 93.489 61.856 93.507 61.694C93.525 61.586 93.633 61.496 93.741 61.478C94.389 61.406 94.551 61.064 94.551 59.966V54.818C94.551 53.918 94.119 53.702 93.795 53.666C93.669 53.648 93.561 53.522 93.561 53.396C93.561 53.252 93.669 53.144 93.795 53.108C94.137 53.054 94.785 52.892 95.541 52.388C95.577 52.37 95.631 52.352 95.667 52.37C95.757 52.388 95.829 52.46 95.829 52.55V53.612C95.829 53.774 96.027 53.846 96.135 53.72C96.963 52.64 97.539 52.37 98.151 52.37C98.871 52.37 99.357 52.82 99.645 53.756C99.699 53.9 99.879 53.936 99.969 53.81C100.689 52.82 101.409 52.37 102.201 52.37C103.407 52.37 103.929 53.558 103.929 56.132V60.2C103.929 61.064 104.469 61.352 104.775 61.46ZM111.233 58.562C111.359 58.562 111.449 58.67 111.413 58.796C110.945 60.794 110.171 62.216 108.353 62.216C106.571 62.216 105.491 60.344 105.491 57.464C105.491 54.512 106.715 52.37 108.605 52.37C110.351 52.37 111.089 54.53 111.161 55.664C111.179 55.97 111.017 56.204 110.801 56.204H106.841C106.697 56.204 106.571 56.33 106.589 56.474C106.661 57.896 106.751 58.67 107.273 59.624C107.687 60.398 108.245 60.776 108.929 60.776C109.919 60.776 110.675 59.948 111.053 58.688C111.071 58.616 111.143 58.562 111.233 58.562ZM106.895 55.538H109.091C109.523 55.538 109.631 55.178 109.577 54.8C109.379 53.63 109.037 53.126 108.191 53.126C107.417 53.126 106.841 53.864 106.643 55.232C106.625 55.394 106.733 55.538 106.895 55.538Z" fill="#2A2828"/>
<path d="M2.99219 2.44006C30.5765 5.31343 63.8383 19.4208 78.2405 44.6247" stroke="#2E2D22" stroke-linecap="round"/>
<path d="M8.25516 1.3075C6.03855 1.3075 -0.593774 1.78985 1.62284 1.78985C2.50382 1.78985 3.40409 2.61414 4.12838 3.02252C5.46868 3.77822 6.4519 4.81009 7.53164 5.88983" stroke="#2E2D22" stroke-linecap="round"/>
</svg>
