<svg width="171" height="83" viewBox="0 0 171 83" fill="none" xmlns="http://www.w3.org/2000/svg">
<rect y="38.9022" width="165" height="45" rx="6" transform="rotate(-13.6371 0 38.9022)" fill="#2E2D22"/>
<path d="M32.618 56.5066C32.7463 56.4754 32.8791 56.5564 32.8888 56.6899C32.9425 59.7104 32.1743 61.2097 30.2715 61.6714C28.2832 62.1538 26.312 60.1871 25.5339 56.9801C25.0308 54.9063 25.1503 53.0662 25.8427 51.7211C26.3673 50.7109 27.1136 50.0544 27.9474 49.8521C28.6315 49.6862 30.6873 49.4817 30.9259 50.4652L31.56 52.8921C31.5911 53.0204 31.4887 53.1584 31.3605 53.1895C31.2536 53.2155 31.1311 53.1773 31.0838 53.0755C29.8517 50.7032 28.9789 50.3716 28.0168 50.605C26.563 50.9577 25.9997 52.9281 26.6273 55.515C27.3224 58.3799 28.9379 60.0933 30.5841 59.6939C31.6959 59.4242 32.3857 58.4419 32.4619 56.7029C32.4625 56.6122 32.5325 56.5273 32.618 56.5066ZM36.5838 47.7569C37.1825 47.6116 37.7565 47.9251 37.9744 48.8231C38.1404 49.5072 37.8807 50.023 37.4531 50.1267C36.8117 50.2823 36.7493 49.2787 36.0438 49.4499C35.5307 49.5744 35.0728 50.9532 35.3996 52.3001L36.603 57.2603C36.9194 58.5644 37.2797 58.9298 38.3105 58.7929C38.4653 58.778 38.6299 58.8965 38.65 59.0727C38.6701 59.2489 38.5678 59.387 38.3968 59.4285L34.7836 60.3051C34.5912 60.3517 34.3786 60.2222 34.3533 60.0246C34.3384 59.8697 34.4193 59.7369 34.5373 59.663C35.373 59.1886 35.4176 58.9061 35.1427 57.773L33.6333 51.5515C33.374 50.4825 32.8038 50.3718 32.4034 50.401C32.2006 50.4049 32.0522 50.2598 32.0483 50.0571C32.0385 49.9236 32.1247 49.8121 32.2692 49.7544C32.6332 49.5756 33.3562 49.1964 34.1141 48.4013C34.1627 48.3216 34.2696 48.2957 34.3707 48.3391C34.429 48.3928 34.466 48.4518 34.4815 48.5159L34.8342 49.9697C34.8757 50.1408 35.1051 50.1531 35.1543 49.9826C35.5544 48.4594 35.921 47.9177 36.5838 47.7569ZM47.3366 54.0449C47.7522 55.6646 48.0712 57.353 46.4677 57.742C45.9119 57.8769 45.3319 57.6327 44.9165 56.7601C44.827 56.578 44.5815 56.5923 44.5109 56.7679C43.9682 58.0768 43.2608 58.5201 42.5766 58.686C41.4649 58.9558 40.4618 58.1804 40.0676 56.5555C39.7512 55.2514 40.0736 54.1544 40.6022 53.347C40.996 52.7308 41.5284 52.1262 43.0961 50.7498C43.2464 50.6228 43.3118 50.4258 43.2703 50.2548L43.0162 49.2072C42.6427 47.6678 41.8729 47.1075 41.0818 47.2995C40.3549 47.4758 39.9553 48.1614 40.1161 48.8241C40.225 49.2731 40.3579 49.3541 40.4772 49.8458C40.5913 50.3162 40.5713 50.887 39.9085 51.0478C39.4168 51.1671 38.8964 50.7953 38.7356 50.1325C38.2636 48.1869 40.1028 46.9031 41.1504 46.649C42.1553 46.4052 42.938 46.6454 43.5367 47.2472C44.1407 47.8704 44.3345 48.3893 44.6976 49.8859L45.8543 54.6536C46.1292 55.7867 46.4195 56.2369 46.8044 56.1436C47.2747 56.0295 47.191 55.0311 46.9783 54.1545C46.9789 54.0638 47.0009 53.9679 47.0813 53.9258C47.1882 53.8998 47.2892 53.9432 47.3366 54.0449ZM44.2455 54.2742L43.5815 51.5376C43.5349 51.3452 43.3165 51.2849 43.1662 51.412C41.8777 52.5395 41.0324 53.6275 41.4629 55.402C41.7793 56.7062 42.4591 57.1752 43.1432 57.0092C44.0626 56.7861 44.4893 55.279 44.2455 54.2742ZM46.7984 44.5769C46.4119 42.6106 46.2144 39.5571 48.7372 38.945C49.8062 38.6857 50.7529 39.1351 50.9707 40.0331C51.1056 40.589 50.8938 41.1157 50.4662 41.2195C50.1669 41.2921 49.9012 41.1302 49.4411 40.54C48.9441 39.8909 48.668 39.6862 48.2618 39.7848C47.5777 39.9508 47.4385 40.7769 47.7964 42.2521L48.4344 44.8818C48.4655 45.0101 48.6249 45.1072 48.7532 45.0761L50.2925 44.7026C50.5063 44.6508 50.7189 44.7803 50.7707 44.9941C50.8226 45.2079 50.6983 45.4418 50.4845 45.4937L48.9451 45.8671C48.8168 45.8983 48.7145 46.0363 48.7508 46.1859L50.5299 53.5192C50.9501 55.251 51.2093 55.5729 52.4487 55.3628C52.6035 55.3479 52.7629 55.445 52.8044 55.6161C52.8459 55.7871 52.7488 55.9465 52.5777 55.988L48.5583 56.9631C48.3873 57.0046 48.2013 56.8913 48.1598 56.7203C48.1235 56.5706 48.2207 56.4112 48.3652 56.3535C49.3816 55.9711 49.4379 55.5499 49.0333 53.8823L47.2542 46.549C47.2179 46.3994 47.0851 46.3184 46.9354 46.3547L46.6789 46.417C46.4437 46.474 46.2046 46.3283 46.1475 46.0931C46.1008 45.9007 46.209 45.6933 46.391 45.6039C47.0227 45.3148 46.8555 44.8121 46.7984 44.5769ZM58.2828 51.2308C58.4059 51.1783 58.5653 51.2755 58.575 51.4089C58.854 53.4919 58.1772 54.9012 56.9371 55.202C55.6757 55.508 55.0801 54.4527 54.6185 52.5499L52.829 45.1739C52.7979 45.0456 52.665 44.9647 52.5368 44.9958L52.2374 45.0684C51.9809 45.1306 51.7152 44.9687 51.653 44.7121C51.6063 44.5197 51.6555 44.3493 51.8058 44.2223C52.4555 43.6345 53.1427 42.268 53.1387 41.3182C53.1445 41.2489 53.1931 41.1692 53.2572 41.1536C53.3641 41.1277 53.449 41.1976 53.4697 41.2831L54.0195 43.5494C54.0507 43.6777 54.1835 43.7586 54.3118 43.7275L55.4877 43.4422C55.7015 43.3904 55.914 43.5199 55.9711 43.7551C56.0229 43.9689 55.8934 44.1814 55.6796 44.2333L54.5037 44.5186C54.3754 44.5497 54.2945 44.6825 54.3256 44.8108L56.0425 51.8875C56.4004 53.3627 56.5994 53.903 57.3049 53.7319C57.8822 53.5918 58.156 52.5746 58.1157 51.4751C58.1111 51.363 58.1759 51.2567 58.2828 51.2308ZM65.5363 48.5202C65.686 48.4839 65.824 48.5862 65.8176 48.7463C65.8374 51.2543 65.3279 53.1663 63.1685 53.6902C61.0519 54.2037 59.2297 52.2914 58.3998 48.8707C57.5491 45.3644 58.3857 42.4675 60.6306 41.9229C62.7044 41.4197 64.2034 43.7726 64.6157 45.0988C64.7253 45.4571 64.6003 45.7817 64.3437 45.8439L59.6402 46.9851C59.4691 47.0266 59.3558 47.2125 59.4187 47.3784C59.9139 49.0466 60.2439 49.94 61.1388 50.9227C61.8536 51.7228 62.6253 52.011 63.4377 51.8139C64.6136 51.5286 65.273 50.3272 65.3588 48.7217C65.3595 48.631 65.4294 48.5461 65.5363 48.5202ZM59.5124 46.1785L62.1207 45.5456C62.6338 45.4212 62.6584 44.9624 62.4853 44.529C61.913 43.1964 61.3615 42.6963 60.3567 42.9401C59.4374 43.1631 58.9659 44.2057 59.1249 45.8876C59.1502 46.0852 59.32 46.2251 59.5124 46.1785ZM75.3077 47.2815C75.7181 48.8798 76.0372 50.5682 74.4337 50.9572C73.8778 51.092 73.3244 50.8641 72.9194 50.0342C72.8351 49.8735 72.5896 49.8878 72.519 50.0634C72.1706 51.0535 71.6329 51.6367 70.7777 51.8441C68.8108 52.3213 66.9614 50.4836 66.1885 47.298C65.3326 43.7703 66.3208 40.565 68.3732 40.067C68.9719 39.9218 69.441 39.9891 70.0837 40.3991C70.2431 40.4963 70.4148 40.3641 70.3733 40.193L69.5901 36.9647C69.3359 35.9171 68.7606 35.785 68.3602 35.8142C68.1626 35.8395 68.009 35.673 68.0051 35.4703C67.9953 35.3368 68.0815 35.2253 68.2259 35.1676C68.5952 35.0101 69.313 34.6096 70.0709 33.8145C70.1195 33.7348 70.2264 33.7089 70.3327 33.7736C70.3858 33.806 70.4227 33.865 70.4383 33.9291L73.815 47.8474C74.0899 48.9805 74.3906 49.4735 74.7755 49.3801C75.2458 49.266 75.1569 48.2462 74.9656 47.3645C74.9449 47.279 74.9721 47.2044 75.0524 47.1623C75.1541 47.115 75.2817 47.1746 75.3077 47.2815ZM72.3444 48.3173L71.0009 42.78C70.6845 41.4758 69.5441 40.5074 68.582 40.7408C67.235 41.0676 66.8046 43.1189 67.4892 45.9411C68.231 48.9984 69.6755 50.7533 71.172 50.3902C72.0486 50.1775 72.5415 49.1298 72.3444 48.3173ZM89.1354 35.2789L90.7603 34.8847C90.9955 34.8277 91.2184 35 91.2113 35.2507C91.2107 35.3414 91.1459 35.4477 91.0708 35.5112C90.8453 35.7017 90.7203 36.0263 90.6835 36.7144L90.2707 46.9565C90.2752 47.0686 90.1839 47.1586 90.0504 47.1684C89.9597 47.1677 89.88 47.1192 89.8379 47.0388L86.6337 41.2964C86.5546 41.1571 86.3408 41.209 86.3344 41.369L85.7595 48.0509C85.7427 48.1682 85.6514 48.2583 85.5393 48.2628C85.4486 48.2622 85.3689 48.2136 85.3268 48.1333L80.4142 39.4549C79.9242 38.555 79.6695 38.3452 79.3708 38.3271C79.2322 38.3154 79.1155 38.2079 79.0792 38.0582C79.0274 37.8444 79.1511 37.7012 79.3221 37.6597L81.8877 37.0373C82.0801 36.9906 82.2713 37.1254 82.2966 37.323C82.3063 37.4564 82.2305 37.6106 82.1074 37.6631C81.711 37.8952 81.5704 38.1556 81.6223 38.3694C81.6794 38.6046 81.8271 38.8404 81.9749 39.0762L85.01 44.588C85.0942 44.7487 85.3346 44.713 85.3572 44.5264L85.7018 40.2548C85.7199 39.9561 85.6473 39.6568 85.5105 39.373L85.0471 38.4893C84.5046 37.4664 84.2072 37.2669 83.7109 37.2741C83.5295 37.2729 83.3863 37.1491 83.361 36.9515C83.3461 36.7967 83.4698 36.6535 83.6408 36.612L86.6126 35.891C86.7837 35.8495 86.9962 35.979 87.0001 36.1818C87.0151 36.3367 86.9341 36.4695 86.7896 36.5272C86.1742 36.7897 86.0984 36.9439 86.1866 37.3074C86.2747 37.6708 86.4484 38.0135 86.849 38.7313L89.4887 43.5467C89.5574 43.6432 89.7071 43.6069 89.7239 43.4897L89.9594 38.022C90.0124 37.3073 89.9741 36.6828 89.8755 36.2766C89.8133 36.02 89.6435 35.8801 89.2217 35.9145C89.0669 35.9294 88.9023 35.8109 88.8822 35.6347C88.8621 35.4584 88.9858 35.3152 89.1354 35.2789ZM92.5568 30.9852C92.0437 31.1097 91.5292 30.6686 91.3529 29.9417C91.1817 29.2361 91.453 28.5817 91.9448 28.4624C92.4793 28.3327 92.999 28.7952 93.1701 29.5008C93.3465 30.2277 93.0913 30.8555 92.5568 30.9852ZM97.8584 44.3459C98.0132 44.331 98.1726 44.4282 98.2089 44.5778C98.2504 44.7488 98.1371 44.9348 97.966 44.9763L94.3742 45.8477C94.2032 45.8892 94.0172 45.7759 93.9757 45.6048C93.9394 45.4552 94.0366 45.2958 94.181 45.2381C95.1334 44.8712 95.2052 44.5142 94.7851 42.7824L93.395 37.0526C93.1356 35.9837 92.5603 35.8516 92.1651 35.9022C91.9888 35.9223 91.8456 35.7986 91.8093 35.6489C91.7678 35.4779 91.8436 35.3237 92.0043 35.2394C92.3736 35.0819 93.0965 34.7028 93.8706 33.8811C93.9082 33.8493 93.9458 33.8176 94.0151 33.8234C94.1272 33.8189 94.2121 33.8888 94.238 33.9957L96.2713 42.3766C96.6811 44.0656 96.9027 44.4193 97.8584 44.3459ZM102.611 40.4764C102.734 40.4239 102.893 40.521 102.903 40.6545C103.182 42.7374 102.505 44.1467 101.265 44.4476C100.004 44.7536 99.4081 43.6983 98.9465 41.7955L97.157 34.4194C97.1259 34.2912 96.993 34.2102 96.8647 34.2413L96.5654 34.3139C96.3089 34.3762 96.0432 34.2143 95.981 33.9577C95.9343 33.7653 95.9835 33.5949 96.1338 33.4679C96.7835 32.8801 97.4707 31.5136 97.4666 30.5637C97.4725 30.4944 97.521 30.4147 97.5852 30.3992C97.6921 30.3732 97.777 30.4432 97.7977 30.5287L98.3475 32.795C98.3787 32.9232 98.5115 33.0042 98.6398 32.9731L99.8157 32.6878C100.029 32.6359 100.242 32.7655 100.299 33.0006C100.351 33.2144 100.221 33.427 100.008 33.4788L98.8317 33.7641C98.7034 33.7952 98.6224 33.9281 98.6536 34.0564L100.37 41.1331C100.728 42.6083 100.927 43.1486 101.633 42.9774C102.21 42.8374 102.484 41.8201 102.444 40.7206C102.439 40.6086 102.504 40.5023 102.611 40.4764ZM109.327 34.2968L110.473 39.0217C110.852 40.5824 111.01 40.861 111.794 40.9198C111.954 40.9263 112.092 41.0286 112.128 41.1783C112.175 41.3707 112.061 41.5566 111.869 41.6033L108.747 42.3606C108.576 42.4021 108.39 42.2888 108.349 42.1177C108.313 41.9681 108.388 41.8139 108.528 41.7348C109.299 41.3666 109.355 40.9455 108.976 39.3848L107.835 34.6812C107.415 32.9495 106.791 32.1501 105.872 32.3731C104.974 32.591 104.126 33.951 104.469 35.3621L105.641 40.1939C106.02 41.7547 106.263 42.1032 107.117 42.0771C107.277 42.0836 107.415 42.1859 107.451 42.3356C107.492 42.5066 107.379 42.6926 107.208 42.7341L104.001 43.5121C103.83 43.5536 103.644 43.4403 103.603 43.2692C103.561 43.0982 103.637 42.944 103.781 42.8863C104.521 42.4806 104.528 42.1391 104.144 40.557L101.401 29.2471C101.141 28.1781 100.566 28.0461 100.165 28.0753C99.9678 28.1006 99.7981 27.9607 99.7941 27.7579C99.8058 27.6192 99.8867 27.4864 100.01 27.4339C100.4 27.2712 101.123 26.8921 101.876 26.0756C101.93 26.0172 102.037 25.9913 102.138 26.0347C102.191 26.0671 102.228 26.126 102.244 26.1902L103.903 33.0317C103.94 33.1814 104.169 33.1936 104.223 33.0446C104.654 31.7403 105.224 31.104 106.165 30.8757C107.619 30.523 108.694 31.6884 109.327 34.2968ZM124.145 34.3011C124.273 34.2699 124.406 34.3509 124.416 34.4844C124.47 37.5049 123.702 39.0043 121.799 39.4659C119.81 39.9483 117.839 37.9816 117.061 34.7746C116.558 32.7008 116.678 30.8607 117.37 29.5156C117.895 28.5054 118.641 27.849 119.475 27.6467C120.159 27.4807 122.214 27.2762 122.453 28.2597L123.087 30.6866C123.118 30.8149 123.016 30.9529 122.888 30.984C122.781 31.01 122.658 30.9718 122.611 30.8701C121.379 28.4977 120.506 28.1661 119.544 28.3995C118.09 28.7522 117.527 30.7226 118.155 33.3095C118.85 36.1744 120.465 37.8878 122.111 37.4884C123.223 37.2187 123.913 36.2364 123.989 34.4974C123.99 34.4067 124.06 34.3218 124.145 34.3011ZM132.694 33.3364C133.109 34.9561 133.428 36.6444 131.825 37.0335C131.269 37.1683 130.689 36.9242 130.274 36.0515C130.184 35.8695 129.939 35.8838 129.868 36.0594C129.325 37.3682 128.618 37.8115 127.934 37.9775C126.822 38.2472 125.819 37.4718 125.425 35.847C125.108 34.5428 125.431 33.4459 125.959 32.6385C126.353 32.0223 126.886 31.4177 128.453 30.0413C128.604 29.9142 128.669 29.7173 128.627 29.5462L128.373 28.4986C128 26.9593 127.23 26.399 126.439 26.5909C125.712 26.7673 125.312 27.4528 125.473 28.1156C125.582 28.5646 125.715 28.6455 125.834 29.1373C125.948 29.6076 125.928 30.1784 125.266 30.3392C124.774 30.4585 124.254 30.0867 124.093 29.4239C123.621 27.4784 125.46 26.1946 126.508 25.9404C127.512 25.6966 128.295 25.9368 128.894 26.5386C129.498 27.1618 129.692 27.6807 130.055 29.1773L131.211 33.945C131.486 35.0781 131.777 35.5284 132.161 35.435C132.632 35.3209 132.548 34.3225 132.335 33.4459C132.336 33.3552 132.358 33.2593 132.438 33.2172C132.545 33.1913 132.646 33.2347 132.694 33.3364ZM129.603 33.5656L128.939 30.829C128.892 30.6366 128.674 30.5764 128.523 30.7034C127.235 31.831 126.39 32.9189 126.82 34.6935C127.136 35.9976 127.816 36.4666 128.5 36.3006C129.42 36.0776 129.846 34.5705 129.603 33.5656ZM135.972 23.6441C136.571 23.4989 137.145 23.8124 137.363 24.7103C137.529 25.3945 137.269 25.9103 136.842 26.014C136.2 26.1696 136.138 25.166 135.432 25.3372C134.919 25.4617 134.461 26.8405 134.788 28.1874L135.991 33.1475C136.308 34.4517 136.668 34.8171 137.699 34.6802C137.854 34.6652 138.018 34.7838 138.038 34.96C138.059 35.1362 137.956 35.2743 137.785 35.3157L134.172 36.1923C133.98 36.239 133.767 36.1095 133.742 35.9119C133.727 35.757 133.808 35.6242 133.926 35.5503C134.761 35.0759 134.806 34.7934 134.531 33.6603L133.022 27.4388C132.762 26.3698 132.192 26.2591 131.792 26.2883C131.589 26.2922 131.441 26.1471 131.437 25.9443C131.427 25.8109 131.513 25.6994 131.658 25.6417C132.022 25.4629 132.745 25.0837 133.503 24.2886C133.551 24.2089 133.658 24.183 133.759 24.2263C133.817 24.2801 133.854 24.3391 133.87 24.4032L134.223 25.857C134.264 26.0281 134.494 26.0403 134.543 25.8699C134.943 24.3467 135.31 23.8049 135.972 23.6441ZM145.538 29.111C145.687 29.0747 145.825 29.1771 145.819 29.3371C145.839 31.8451 145.329 33.7572 143.17 34.281C141.053 34.7945 139.231 32.8823 138.401 29.4615C137.55 25.9552 138.387 23.0583 140.632 22.5137C142.706 22.0105 144.205 24.3634 144.617 25.6896C144.727 26.0479 144.602 26.3725 144.345 26.4348L139.642 27.5759C139.47 27.6174 139.357 27.8034 139.42 27.9692C139.915 29.6375 140.245 30.5309 141.14 31.5136C141.855 32.3136 142.627 32.6018 143.439 32.4047C144.615 32.1194 145.274 30.9181 145.36 29.3126C145.361 29.2218 145.431 29.137 145.538 29.111ZM139.514 26.7693L142.122 26.1365C142.635 26.012 142.66 25.5533 142.487 25.1198C141.914 23.7872 141.363 23.2871 140.358 23.5309C139.439 23.754 138.967 24.7965 139.126 26.4784C139.152 26.676 139.321 26.816 139.514 26.7693Z" fill="#EEE9D7"/>
</svg>
