<svg width="145" height="70" viewBox="0 0 145 70" fill="none" xmlns="http://www.w3.org/2000/svg">
<rect x="-0.583696" y="25.2565" width="140" height="46" rx="6.5" transform="rotate(-10.6362 -0.583696 25.2565)" fill="#EAD980"/>
<rect x="-0.583696" y="25.2565" width="140" height="46" rx="6.5" transform="rotate(-10.6362 -0.583696 25.2565)" stroke="#2E2D22"/>
<path d="M24.5268 37.8868C24.2438 35.9029 24.2064 32.8432 26.7578 32.3641C27.8389 32.1611 28.7607 32.6595 28.9313 33.5676C29.0368 34.1298 28.7978 34.6448 28.3653 34.726C28.0626 34.7828 27.8058 34.6072 27.3772 33.9938C26.9148 33.3195 26.6499 33.1007 26.2391 33.1778C25.5472 33.3078 25.365 34.1254 25.6451 35.6174L26.1446 38.2769C26.169 38.4066 26.323 38.512 26.4528 38.4876L28.0096 38.1952C28.2258 38.1546 28.4312 38.2951 28.4719 38.5113C28.5125 38.7276 28.376 38.9546 28.1598 38.9953L26.603 39.2876C26.4733 39.312 26.3639 39.4445 26.3923 39.5958L27.7851 47.0122C28.114 48.7635 28.356 49.0986 29.6047 48.9537C29.7601 48.9469 29.9142 49.0522 29.9467 49.2252C29.9792 49.3982 29.8738 49.5523 29.7008 49.5848L25.6359 50.3482C25.4629 50.3806 25.2831 50.2577 25.2506 50.0847C25.2222 49.9334 25.3276 49.7793 25.4749 49.7292C26.51 49.4005 26.5883 48.9829 26.2715 47.2964L24.8787 39.8801C24.8503 39.7287 24.7219 39.6409 24.5706 39.6693L24.3111 39.718C24.0732 39.7627 23.8421 39.6047 23.7974 39.3668C23.7609 39.1722 23.8798 38.9708 24.0662 38.891C24.7122 38.6354 24.5715 38.1246 24.5268 37.8868ZM33.5342 36.8891C34.1397 36.7754 34.6966 37.1185 34.8671 38.0266C34.997 38.7185 34.7107 39.22 34.2782 39.3012C33.6296 39.423 33.6198 38.4176 32.9063 38.5516C32.3874 38.649 31.858 40.002 32.1138 41.3642L33.0559 46.3805C33.3036 47.6994 33.6443 48.0831 34.6808 48.0004C34.8362 47.9936 34.9944 48.1206 35.0052 48.2976C35.0161 48.4746 34.9067 48.6071 34.7337 48.6396L31.0796 49.3258C30.885 49.3624 30.6795 49.2219 30.6646 49.0232C30.6578 48.8678 30.7456 48.7394 30.8672 48.6718C31.7266 48.2418 31.786 47.962 31.5708 46.8161L30.3891 40.524C30.1861 39.4429 29.6225 39.3026 29.2211 39.3108C29.0184 39.3041 28.8778 39.1514 28.8845 38.9487C28.8818 38.8149 28.9736 38.7081 29.1209 38.6581C29.4939 38.4985 30.2357 38.1577 31.0342 37.4034C31.0869 37.3263 31.195 37.306 31.2937 37.3546C31.3491 37.4114 31.3829 37.4722 31.3951 37.5371L31.6712 39.0074C31.7037 39.1803 31.9321 39.2046 31.9902 39.037C32.4695 37.5367 32.864 37.015 33.5342 36.8891ZM40.7881 47.7712C38.6043 48.1813 36.4292 46.0156 35.7713 42.5128C35.1176 39.0317 36.3007 36.3919 38.744 35.9331C40.9494 35.5189 43.0623 37.4725 43.7161 40.9536C44.3739 44.4564 43.2314 47.3124 40.7881 47.7712ZM42.2203 41.9285C41.936 40.4149 40.7334 36.2758 38.528 36.69C37.2739 36.9255 36.7108 38.5758 37.1818 41.0839C37.462 42.5758 38.7122 47.4447 40.9825 47.0184C42.3014 46.7707 42.7685 44.8474 42.2203 41.9285ZM58.8865 43.4322C59.0243 43.4511 59.1311 43.5429 59.1771 43.6686C59.2353 43.8591 59.1164 44.0605 58.9218 44.0971L55.6352 44.7143C55.4623 44.7468 55.2825 44.6239 55.25 44.4509L55.2459 44.4293C55.2175 44.2779 55.3053 44.1495 55.4486 44.0778C56.1945 43.7587 56.2592 43.3883 56.0115 42.0694L55.0817 37.118C54.7081 35.1287 54.2038 34.3504 53.1659 34.5454C52.3226 34.7037 51.4689 36.1176 51.7288 37.5014L52.679 42.5609C52.9592 44.0529 53.2526 44.4231 54.0688 44.3593C54.2242 44.3525 54.3783 44.4579 54.4067 44.6092L54.4108 44.6309C54.4433 44.8038 54.3163 44.962 54.1433 44.9945L50.727 45.6361C50.5541 45.6685 50.3702 45.524 50.3553 45.3253C50.3485 45.1699 50.4404 45.0631 50.5877 45.0131C51.3417 44.7372 51.4659 44.4452 51.2101 43.083L50.2559 38.0019C49.927 36.2505 49.3172 35.2681 48.5388 35.4143C47.7172 35.5686 46.585 36.8109 46.8855 38.411L47.9534 44.0976C48.1362 45.0705 48.4092 45.3326 49.1606 45.2811C49.3376 45.2702 49.4742 45.4013 49.5067 45.5742C49.5135 45.7297 49.3865 45.8878 49.2135 45.9203L45.7756 46.5659C45.6026 46.5984 45.4188 46.4539 45.4039 46.2552C45.4011 46.1214 45.5106 45.9889 45.6362 45.943C46.3984 45.7103 46.5158 45.2629 46.2681 43.944L45.1068 37.7601C44.9038 36.679 44.3361 36.517 43.9388 36.5468C43.7834 36.5536 43.6252 36.4266 43.5968 36.2753C43.5643 36.1023 43.6697 35.9482 43.8129 35.8765C44.2115 35.7345 44.9534 35.3937 45.7478 34.6178C45.787 34.588 45.8478 34.5542 45.8951 34.5677C46.0073 34.569 46.11 34.6393 46.1303 34.7474L46.3699 36.0231C46.4064 36.2177 46.6605 36.2595 46.7618 36.0838C47.5128 34.5997 48.1438 34.1454 48.879 34.0074C49.7438 33.8449 50.4291 34.2759 50.9862 35.3352C51.0836 35.496 51.3079 35.4987 51.3876 35.327C52.0292 33.9754 52.7925 33.2724 53.7439 33.0937C55.1926 32.8217 56.0876 34.131 56.6683 37.2229L57.586 42.1095C57.7809 43.1473 58.4945 43.3715 58.8865 43.4322ZM70.9986 32.6066L75.4743 31.7661C75.6473 31.7336 75.8014 31.839 75.8379 32.0336C75.8664 32.1849 75.7826 32.335 75.6569 32.3809C75.0326 32.6325 74.9544 33.0501 75.2305 34.5204L76.071 38.9962C76.1807 39.58 75.9579 40.1814 75.466 40.5424C74.5608 41.2049 73.2987 41.7553 71.8932 42.0192C70.0554 42.3644 68.0388 41.7581 66.5248 40.2517C65.2324 38.9723 64.3521 37.1454 63.8757 34.7278C63.4047 32.2196 63.6121 29.9869 64.3495 28.192C65.1584 26.1822 66.5609 25.0682 68.2258 24.7555C69.9123 24.4388 71.0503 24.5385 72.1302 24.8057C72.5519 24.9056 72.8587 25.2285 72.9656 25.6785L73.9451 29.3447C73.9695 29.4745 73.8817 29.6029 73.752 29.6272C73.6438 29.6475 73.5411 29.5773 73.4992 29.4732C72.5377 27.2139 71.2018 25.2263 68.845 25.6689C65.9477 26.213 65.1528 29.9662 65.973 34.3339C66.8501 39.0042 69.3064 41.4753 72.1389 40.9434C73.5227 40.6835 74.4049 39.7791 74.2506 38.9575L73.536 35.152C73.1908 33.3141 72.5286 33.1251 71.0731 33.2418C70.896 33.2526 70.7379 33.1257 70.727 32.9486C70.7202 32.7932 70.8256 32.6391 70.9986 32.6066ZM83.7445 35.1599C83.8958 35.1315 84.0283 35.2409 84.0135 35.4004C83.902 37.906 83.2931 39.7888 81.1093 40.1989C78.9687 40.6009 77.2491 38.5959 76.5994 35.1363C75.9334 31.5903 76.9205 28.7412 79.1908 28.3148C81.2882 27.9209 82.6619 30.3491 83.0042 31.695C83.0949 32.0586 82.9531 32.3762 82.6936 32.4249L77.9368 33.3182C77.7638 33.3507 77.6409 33.5305 77.695 33.6994C78.1022 35.3913 78.385 36.3008 79.2272 37.329C79.8991 38.1653 80.6547 38.4935 81.4763 38.3392C82.6655 38.1159 83.3869 36.9507 83.5567 35.3519C83.5621 35.2614 83.6364 35.1802 83.7445 35.1599ZM77.8514 32.506L80.4893 32.0107C81.0082 31.9132 81.0567 31.4564 80.9066 31.0145C80.4048 29.6538 79.8803 29.1255 78.8641 29.3163C77.9343 29.4909 77.4089 30.5074 77.4797 32.1953C77.4946 32.394 77.6568 32.5426 77.8514 32.506ZM89.3236 38.6563C87.1398 39.0664 84.9647 36.9006 84.3068 33.3979C83.6531 29.9167 84.8362 27.277 87.2795 26.8182C89.4849 26.404 91.5978 28.3576 92.2516 31.8387C92.9094 35.3415 91.7669 38.1974 89.3236 38.6563ZM90.7558 32.8135C90.4716 31.3 89.2689 27.1608 87.0635 27.575C85.8094 27.8105 85.2463 29.4608 85.7173 31.969C85.9975 33.4609 87.2477 38.3298 89.518 37.9034C90.8369 37.6558 91.304 35.7325 90.7558 32.8135ZM96.8091 25.0061C97.4145 24.8924 97.9714 25.2355 98.1419 26.1437C98.2718 26.8356 97.9855 27.337 97.553 27.4182C96.9044 27.5401 96.8946 26.5346 96.1811 26.6686C95.6622 26.766 95.1328 28.119 95.3886 29.4812L96.3307 34.4975C96.5784 35.8164 96.9191 36.2001 97.9556 36.1174C98.111 36.1106 98.2692 36.2376 98.28 36.4146C98.2909 36.5917 98.1815 36.7241 98.0085 36.7566L94.3544 37.4429C94.1598 37.4794 93.9543 37.3389 93.9394 37.1403C93.9326 36.9849 94.0204 36.8564 94.142 36.7888C95.0014 36.3588 95.0608 36.0791 94.8456 34.9331L93.6639 28.6411C93.4609 27.56 92.8973 27.4196 92.4959 27.4278C92.2932 27.4211 92.1526 27.2684 92.1593 27.0657C92.1566 26.9319 92.2484 26.8251 92.3957 26.7751C92.7687 26.6155 93.5105 26.2747 94.309 25.5204C94.3617 25.4434 94.4698 25.423 94.5685 25.4717C94.6239 25.5284 94.6577 25.5892 94.6699 25.6541L94.946 27.1244C94.9785 27.2974 95.2069 27.3216 95.265 27.154C95.7443 25.6538 96.1388 25.132 96.8091 25.0061ZM104.491 23.5634C105.572 23.3604 106.494 23.8588 106.665 24.767C106.774 25.3507 106.535 25.8657 106.103 25.9469C104.87 26.1784 105.051 24.0403 104.337 24.1743C103.887 24.2812 103.721 24.8273 104.006 25.1542C104.599 25.8041 104.989 26.6933 105.144 27.5149C105.444 29.1149 105.01 31.5693 103.042 31.9388C102.826 31.9794 102.606 31.9984 102.424 31.9876C102.157 31.9931 101.896 32.154 101.76 32.3811C101.456 32.9082 101.172 33.5435 101.217 33.7813C101.31 34.2786 101.728 34.3569 102.752 34.2093C103.82 34.0536 105.094 33.9262 105.094 33.9262C106.447 33.7393 107.489 34.6404 107.781 36.1972C108.236 38.6189 106.203 40.9034 103.889 41.3379C102.16 41.6627 100.569 40.8199 100.317 39.4793C100.163 38.6577 100.399 37.6508 101.538 36.5639C101.687 36.4017 101.616 36.1463 101.405 36.0963C100.696 35.8938 100.416 35.4763 100.31 34.9141C100.148 34.0492 100.856 32.9314 101.491 32.1406C101.583 32.0338 101.532 31.8865 101.408 31.8203C99.9349 31.2464 99.3589 30.3249 99.0787 28.833C98.6483 26.541 99.6478 24.473 101.334 24.1563C101.94 24.0426 102.495 24.1397 102.984 24.3612C103.109 24.4274 103.256 24.3774 103.348 24.2706C103.659 23.8988 104.015 23.6528 104.491 23.5634ZM103.011 31.2955C103.832 31.1412 104.185 30.1572 103.925 28.7734C103.726 27.714 102.83 24.614 101.274 24.9064C100.452 25.0607 100.112 26.1095 100.392 27.6014C100.843 30.0014 101.908 31.5026 103.011 31.2955ZM103.11 36.112C102.185 36.1961 101.452 36.9383 101.38 37.8694C101.369 38.0505 101.38 38.2276 101.417 38.4222C101.624 39.5249 102.8 40.0651 104.378 39.7687C106.454 39.3789 107.629 38.1285 107.357 36.6798C107.183 35.75 106.542 35.557 104.899 35.8656C104.401 35.959 103.727 36.0632 103.11 36.112ZM107.909 19.7654C107.39 19.8629 106.899 19.3954 106.761 18.6603C106.627 17.9467 106.932 17.3074 107.429 17.214C107.97 17.1125 108.465 17.6016 108.599 18.3151C108.737 19.0503 108.449 19.6639 107.909 19.7654ZM112.503 33.3854C112.659 33.3786 112.813 33.4839 112.841 33.6353C112.874 33.8083 112.751 33.988 112.578 34.0205L108.945 34.7027C108.772 34.7352 108.593 34.6123 108.56 34.4393C108.532 34.2879 108.637 34.1338 108.784 34.0838C109.755 33.7673 109.845 33.4145 109.516 31.6631L108.428 25.8684C108.225 24.7873 107.657 24.6253 107.26 24.6552C107.083 24.666 106.946 24.535 106.918 24.3836C106.885 24.2106 106.969 24.0606 107.134 23.9849C107.511 23.8469 108.253 23.5061 109.069 22.7261C109.108 22.6964 109.147 22.6666 109.216 22.6761C109.328 22.6774 109.409 22.7517 109.43 22.8598L111.022 31.3356C111.342 33.0438 111.545 33.4086 112.503 33.3854ZM120.479 29.3581C120.809 30.9973 121.04 32.7 119.418 33.0046C118.856 33.1101 118.289 32.836 117.92 31.9428C117.84 31.7563 117.594 31.7577 117.515 31.9294C116.904 33.208 116.175 33.6137 115.483 33.7436C114.358 33.9548 113.397 33.1279 113.089 31.4847C112.841 30.1657 113.22 29.0872 113.79 28.3086C114.216 27.7138 114.779 27.1379 116.417 25.8455C116.574 25.7265 116.649 25.5332 116.617 25.3602L116.418 24.3008C116.126 22.744 115.386 22.1441 114.586 22.2944C113.851 22.4324 113.416 23.0961 113.542 23.7664C113.627 24.2205 113.756 24.3083 113.849 24.8056C113.938 25.2813 113.888 25.8502 113.218 25.9761C112.721 26.0695 112.221 25.671 112.095 25.0007C111.725 23.0331 113.629 21.8473 114.689 21.6484C115.705 21.4575 116.474 21.7384 117.04 22.3707C117.611 23.0246 117.777 23.553 118.061 25.0665L118.967 29.8883C119.182 31.0342 119.449 31.499 119.838 31.426C120.313 31.3366 120.282 30.3352 120.116 29.4487C120.121 29.3582 120.148 29.2635 120.23 29.2257C120.338 29.2054 120.437 29.254 120.479 29.3581ZM117.38 29.4252L116.86 26.6576C116.824 26.463 116.609 26.3914 116.452 26.5104C115.107 27.5689 114.205 28.6112 114.542 30.4058C114.79 31.7247 115.444 32.2286 116.136 32.0987C117.066 31.9241 117.571 30.4414 117.38 29.4252Z" fill="#2E2D22"/>
</svg>
