<svg width="136" height="136" viewBox="0 0 136 136" fill="none" xmlns="http://www.w3.org/2000/svg">
<circle cx="67.7601" cy="67.7616" r="56.5" transform="rotate(13 67.7601 67.7616)" fill="#2E2D22"/>
<path d="M84.2275 28.7794C83.7103 28.5662 83.315 28.2612 83.0418 27.8643C82.7686 27.4674 82.6194 27.0143 82.5943 26.505C82.5693 25.9957 82.6698 25.4671 82.8961 24.9192C83.1262 24.3618 83.4323 23.9124 83.8143 23.5708C84.1997 23.2279 84.6276 23.0126 85.0981 22.925C85.572 22.8359 86.058 22.8941 86.556 23.0993C86.944 23.2592 87.2641 23.4747 87.5163 23.7459C87.7686 24.0171 87.941 24.3223 88.0335 24.6615C88.1261 25.0006 88.1255 25.3516 88.0317 25.7143L87.184 25.365C87.2227 25.0883 87.1705 24.8075 87.0274 24.5228C86.8878 24.2367 86.6312 24.0167 86.2576 23.8627C85.9272 23.7266 85.602 23.6929 85.2822 23.7618C84.9657 23.8293 84.6741 23.9892 84.4073 24.2417C84.1439 24.4927 83.9267 24.8255 83.7555 25.24C83.5805 25.664 83.4951 26.0608 83.4993 26.4305C83.506 26.8012 83.5967 27.1243 83.7716 27.3999C83.9488 27.6764 84.205 27.8837 84.5403 28.0218C84.7606 28.1126 84.9763 28.1569 85.1873 28.1547C85.3984 28.1525 85.5957 28.1056 85.7792 28.0139C85.9628 27.9223 86.1222 27.7873 86.2575 27.6089L87.1052 27.9583C86.9235 28.2625 86.6845 28.5054 86.3881 28.6871C86.0951 28.8674 85.7627 28.9702 85.3908 28.9953C85.0224 29.0191 84.6346 28.9471 84.2275 28.7794Z" fill="#EEE9D7"/>
<path d="M92.1544 23.6758L88.4104 30.6527L87.6019 30.2206L91.3459 23.2437L92.1544 23.6758Z" fill="#EEE9D7"/>
<path d="M91.9102 32.9463C91.4343 32.624 91.0949 32.2416 90.8919 31.7991C90.6926 31.3559 90.6281 30.8825 90.6984 30.3791C90.7723 29.8749 90.9805 29.3714 91.323 28.8685C91.6655 28.3656 92.0595 27.9848 92.505 27.7261C92.9542 27.4667 93.4182 27.3419 93.8971 27.3517C94.3795 27.3608 94.8437 27.5163 95.2896 27.8183C95.5468 27.9925 95.7718 28.2071 95.9646 28.4622C96.1574 28.7173 96.2914 29.0104 96.3666 29.3416C96.4432 29.6706 96.436 30.0331 96.3449 30.4291C96.2538 30.825 96.0522 31.2521 95.7402 31.7102L95.5225 32.0299L91.7152 29.4517L92.1593 28.7996L95.1948 30.8552C95.3835 30.5782 95.4961 30.2933 95.5326 30.0004C95.5713 29.709 95.5316 29.4315 95.4136 29.1679C95.2977 28.9057 95.1025 28.6817 94.8281 28.4959C94.5258 28.2912 94.2135 28.1887 93.8911 28.1883C93.5723 28.1873 93.2735 28.2651 92.9945 28.4218C92.7155 28.5785 92.4839 28.7921 92.2996 29.0628L92.0035 29.4975C91.751 29.8682 91.6013 30.2261 91.5544 30.571C91.511 30.9153 91.5594 31.2329 91.6995 31.524C91.841 31.8129 92.0651 32.0611 92.3716 32.2687C92.571 32.4037 92.77 32.4979 92.9685 32.5514C93.1706 32.6042 93.369 32.6141 93.5639 32.581C93.7601 32.5457 93.9485 32.4647 94.1289 32.3377L94.7227 33.0388C94.4772 33.2337 94.1995 33.3632 93.8896 33.4274C93.5811 33.4894 93.2573 33.4818 92.9183 33.4048C92.5806 33.3256 92.2446 33.1728 91.9102 32.9463Z" fill="#EEE9D7"/>
<path d="M96.3109 36.4076C96.0321 36.1525 95.8272 35.8689 95.6961 35.5568C95.5668 35.2427 95.5271 34.9249 95.577 34.6035C95.6287 34.2802 95.7856 33.9763 96.0478 33.6919C96.2786 33.4415 96.5153 33.284 96.7579 33.2193C97.0023 33.1528 97.2486 33.1509 97.4969 33.2137C97.7452 33.2766 97.9896 33.3779 98.2303 33.5177C98.4747 33.6573 98.7112 33.8074 98.94 33.9677C99.2388 34.1781 99.4791 34.3508 99.6609 34.4857C99.8464 34.6205 99.9975 34.701 100.114 34.7272C100.233 34.7552 100.342 34.7152 100.441 34.6071L100.462 34.5843C100.721 34.3036 100.845 34.0148 100.833 33.7178C100.824 33.4225 100.664 33.1325 100.352 32.8478C100.03 32.5526 99.7121 32.3913 99.3994 32.3639C99.0868 32.3366 98.8198 32.3685 98.5985 32.4597L98.1667 31.6452C98.526 31.4845 98.8693 31.4175 99.1966 31.4443C99.5276 31.4709 99.8337 31.5587 100.115 31.7078C100.4 31.8567 100.653 32.0325 100.875 32.2351C101.016 32.3644 101.163 32.53 101.315 32.7318C101.47 32.9335 101.587 33.1641 101.664 33.4237C101.743 33.6851 101.745 33.9716 101.669 34.2831C101.593 34.5946 101.395 34.9239 101.075 35.271L98.4215 38.1498L97.7456 37.5314L98.291 36.9397L98.2567 36.9083C98.1234 36.9612 97.9535 36.9928 97.747 37.0031C97.5404 37.0133 97.3134 36.9752 97.0659 36.8886C96.8184 36.802 96.5667 36.6417 96.3109 36.4076ZM96.9699 35.8988C97.2372 36.1434 97.5106 36.2974 97.79 36.3607C98.0713 36.4259 98.3348 36.4187 98.5805 36.3394C98.828 36.2617 99.0357 36.1318 99.2036 35.9498L99.77 35.3353C99.7098 35.3433 99.618 35.3169 99.4944 35.2563C99.3745 35.1955 99.2419 35.1179 99.0966 35.0234C98.955 34.9288 98.8181 34.835 98.6857 34.7419C98.557 34.6486 98.452 34.5735 98.3707 34.5166C98.1741 34.3786 97.9758 34.2654 97.7758 34.1769C97.5795 34.0882 97.3883 34.0513 97.2021 34.0662C97.0195 34.081 96.8496 34.1737 96.6923 34.3444C96.4772 34.5776 96.4015 34.8335 96.4652 35.1119C96.5324 35.3902 96.7007 35.6525 96.9699 35.8988Z" fill="#EEE9D7"/>
<path d="M102.954 37.8394L100.171 40.0868L99.5922 39.3771L104.218 35.6413L104.777 36.3269L104.054 36.9106L104.103 36.9707C104.427 36.8893 104.749 36.9013 105.072 37.0066C105.396 37.1104 105.7 37.3367 105.984 37.6855C106.239 37.9983 106.398 38.3238 106.461 38.6621C106.526 38.9988 106.481 39.3369 106.329 39.6764C106.178 40.0143 105.906 40.3421 105.512 40.6599L102.573 43.0337L101.994 42.324L104.885 39.9891C105.249 39.6957 105.455 39.3728 105.504 39.0206C105.556 38.6668 105.447 38.3255 105.179 37.9967C104.995 37.7702 104.78 37.6074 104.537 37.5084C104.294 37.4115 104.037 37.3881 103.765 37.4382C103.493 37.4884 103.223 37.6222 102.954 37.8394Z" fill="#EEE9D7"/>
<path d="M103.643 44.3715L108.88 41.5435L109.304 42.319L108.486 42.7608L108.523 42.8289C108.862 42.7867 109.175 42.8452 109.462 43.0044C109.752 43.1623 109.989 43.4113 110.175 43.7515C110.363 44.0961 110.442 44.4253 110.41 44.739C110.382 45.0538 110.263 45.3512 110.054 45.6315L110.084 45.6859C110.428 45.6736 110.752 45.7583 111.058 45.9399C111.365 46.1203 111.621 46.3976 111.826 46.7718C112.081 47.2389 112.143 47.7001 112.012 48.1555C111.884 48.6096 111.511 49.003 110.895 49.3357L107.391 51.2283L106.952 50.4256L110.457 48.533C110.843 48.3243 111.062 48.0697 111.112 47.7692C111.163 47.4688 111.11 47.1757 110.954 46.89C110.753 46.5226 110.487 46.2982 110.153 46.2167C109.823 46.134 109.488 46.184 109.149 46.3669L105.74 48.208L105.294 47.3917L108.881 45.4549C109.178 45.2941 109.365 45.0682 109.442 44.7773C109.521 44.4851 109.477 44.1871 109.311 43.8833C109.197 43.6747 109.035 43.5098 108.824 43.3885C108.615 43.2695 108.381 43.2079 108.123 43.2035C107.868 43.2003 107.612 43.268 107.355 43.4067L104.082 45.1742L103.643 44.3715Z" fill="#EEE9D7"/>
<path d="M108.569 55.1773C108.402 54.6668 108.378 54.1797 108.496 53.7162C108.615 53.2552 108.859 52.8464 109.227 52.4899C109.595 52.1358 110.072 51.8649 110.658 51.677C111.249 51.4876 111.8 51.429 112.31 51.5013C112.821 51.576 113.261 51.7658 113.63 52.0705C113.999 52.3778 114.267 52.7867 114.433 53.2972C114.6 53.8078 114.623 54.2936 114.504 54.7547C114.386 55.2182 114.141 55.6273 113.77 55.9822C113.4 56.3395 112.919 56.6128 112.328 56.8022C111.742 56.9901 111.195 57.0463 110.687 56.9708C110.179 56.8977 109.74 56.7076 109.371 56.4003C109.002 56.0955 108.735 55.6879 108.569 55.1773ZM109.351 54.9263C109.478 55.3142 109.682 55.6013 109.963 55.7877C110.244 55.9742 110.566 56.0754 110.93 56.0915C111.295 56.1076 111.666 56.0549 112.045 55.9333C112.424 55.8118 112.758 55.6384 113.046 55.4131C113.335 55.1879 113.539 54.9177 113.659 54.6026C113.78 54.2875 113.777 53.936 113.65 53.5482C113.524 53.1604 113.319 52.8737 113.035 52.688C112.752 52.5024 112.427 52.4019 112.06 52.3866C111.694 52.3713 111.321 52.4244 110.942 52.546C110.562 52.6675 110.23 52.8405 109.944 53.065C109.658 53.2895 109.457 53.5588 109.339 53.8731C109.221 54.1874 109.225 54.5385 109.351 54.9263Z" fill="#EEE9D7"/>
<path d="M113.521 59.3996L109.981 59.9732L109.832 59.0723L115.716 58.1187L115.86 58.989L114.941 59.1381L114.954 59.2144C115.275 59.3034 115.55 59.4732 115.778 59.7237C116.008 59.9739 116.16 60.3204 116.234 60.7632C116.3 61.1602 116.276 61.5208 116.162 61.8451C116.051 62.1689 115.844 62.4402 115.542 62.659C115.243 62.8774 114.843 63.0272 114.342 63.1083L110.603 63.7143L110.454 62.8134L114.131 62.2174C114.593 62.1424 114.934 61.9645 115.152 61.6834C115.373 61.402 115.448 61.0526 115.379 60.6352C115.331 60.3476 115.226 60.1007 115.063 59.8945C114.9 59.6909 114.688 59.5436 114.427 59.4527C114.165 59.3618 113.863 59.3441 113.521 59.3996Z" fill="#EEE9D7"/>
<path d="M110.666 67.6385C110.661 67.1435 110.782 66.7055 111.029 66.3247C111.279 65.9439 111.633 65.6448 112.091 65.4274C112.553 65.2101 113.099 65.0991 113.731 65.0945C114.357 65.09 114.902 65.193 115.365 65.4037C115.828 65.6144 116.187 65.9096 116.442 66.2893C116.697 66.6691 116.827 67.1091 116.832 67.6093C116.836 67.996 116.774 68.302 116.647 68.5273C116.523 68.7551 116.38 68.9289 116.218 69.0487C116.058 69.171 115.927 69.2661 115.825 69.3339L115.825 69.4112L118.761 69.3899L118.77 70.3027L110.818 70.3603L110.809 69.4785L111.725 69.4719L111.724 69.3636C111.615 69.2974 111.477 69.203 111.31 69.0804C111.145 68.9578 110.997 68.7823 110.865 68.5537C110.736 68.3252 110.67 68.0201 110.666 67.6385ZM111.49 67.7563C111.494 68.1224 111.593 68.4311 111.787 68.6824C111.984 68.9337 112.254 69.1238 112.597 69.2528C112.942 69.3818 113.34 69.4447 113.791 69.4414C114.236 69.4382 114.625 69.3709 114.958 69.2396C115.293 69.1082 115.552 68.9156 115.736 68.6615C115.922 68.4075 116.014 68.0948 116.01 67.7235C116.006 67.3368 115.903 67.0152 115.701 66.7588C115.502 66.505 115.232 66.3149 114.891 66.1884C114.553 66.0645 114.175 66.0041 113.756 66.0071C113.331 66.0102 112.946 66.0775 112.6 66.2089C112.257 66.3429 111.985 66.5382 111.783 66.795C111.584 67.0543 111.486 67.3747 111.49 67.7563Z" fill="#EEE9D7"/>
<path d="M110.297 73.8907C110.349 73.5181 110.467 73.1899 110.651 72.9062C110.837 72.6229 111.078 72.4111 111.372 72.2707C111.669 72.1307 112.009 72.0881 112.394 72.1428C112.732 72.191 112.997 72.2964 113.189 72.459C113.383 72.622 113.525 72.8231 113.614 73.0623C113.703 73.3015 113.759 73.5593 113.78 73.8357C113.804 74.115 113.814 74.3938 113.812 74.672C113.808 75.0359 113.801 75.3306 113.793 75.5559C113.787 75.7842 113.807 75.9535 113.851 76.064C113.896 76.1771 113.991 76.244 114.137 76.2648L114.168 76.2692C114.547 76.3231 114.857 76.2617 115.096 76.0849C115.335 75.9106 115.483 75.6155 115.542 75.1994C115.602 74.768 115.555 74.4163 115.4 74.1443C115.245 73.8723 115.066 73.6712 114.865 73.541L115.293 72.7271C115.63 72.9314 115.881 73.1753 116.045 73.459C116.212 73.7456 116.313 74.0465 116.35 74.3615C116.389 74.6795 116.388 74.9865 116.346 75.2826C116.32 75.4715 116.266 75.6852 116.185 75.9236C116.107 76.165 115.982 76.3907 115.812 76.6007C115.641 76.8133 115.405 76.9763 115.104 77.0897C114.803 77.203 114.418 77.2264 113.949 77.1596L110.057 76.6058L110.184 75.7023L110.984 75.8161L110.99 75.7701C110.87 75.6906 110.748 75.569 110.622 75.4053C110.496 75.2416 110.398 75.0337 110.329 74.7817C110.259 74.5298 110.249 74.2328 110.297 73.8907ZM111.093 74.1446C111.043 74.5019 111.071 74.8131 111.177 75.0782C111.284 75.3459 111.44 75.5581 111.645 75.7149C111.85 75.8743 112.076 75.9715 112.322 76.0065L113.153 76.1247C113.112 76.0798 113.081 75.9896 113.061 75.854C113.043 75.7212 113.032 75.5686 113.027 75.3961C113.025 75.2266 113.025 75.0612 113.026 74.9001C113.03 74.7418 113.033 74.6133 113.034 74.5144C113.036 74.2752 113.017 74.0486 112.976 73.8346C112.938 73.6235 112.859 73.4457 112.741 73.3013C112.625 73.1598 112.452 73.0726 112.221 73.0398C111.906 72.9949 111.651 73.0771 111.457 73.2864C111.265 73.4986 111.143 73.7847 111.093 74.1446Z" fill="#EEE9D7"/>
<path d="M107.428 77.9824C107.471 77.8338 107.522 77.7049 107.58 77.5956C107.636 77.4856 107.681 77.4115 107.716 77.3734L108.429 77.8195C108.313 78.0168 108.239 78.1993 108.207 78.3671C108.175 78.5349 108.207 78.7009 108.303 78.8652C108.395 79.0312 108.572 79.2093 108.833 79.3995L109.234 79.6917L115.604 79.2377L115.331 80.189L110.309 80.4512L110.292 80.5107L114.41 83.3994L114.137 84.3507L108.261 80.0396C107.996 79.8455 107.789 79.6401 107.642 79.4233C107.491 79.2057 107.399 78.9769 107.366 78.7366C107.331 78.4989 107.352 78.2475 107.428 77.9824Z" fill="#EEE9D7"/>
<path d="M110.452 89.6213L110.571 88.7778C110.718 88.7861 110.87 88.7705 111.029 88.7309C111.19 88.6947 111.344 88.6161 111.491 88.4952C111.638 88.3742 111.765 88.1923 111.873 87.9496C112.02 87.6174 112.065 87.3065 112.01 87.0169C111.955 86.7308 111.81 86.5359 111.576 86.4323C111.367 86.3402 111.169 86.3429 110.982 86.4403C110.794 86.5378 110.589 86.7289 110.367 87.0138L109.811 87.7318C109.477 88.1649 109.136 88.4466 108.786 88.5768C108.439 88.708 108.075 88.6894 107.694 88.5209C107.381 88.3828 107.141 88.1697 106.974 87.8818C106.806 87.5962 106.721 87.263 106.72 86.8821C106.719 86.5011 106.812 86.0998 106.998 85.678C107.244 85.1242 107.567 84.7193 107.97 84.4631C108.372 84.207 108.827 84.1332 109.334 84.2417L109.182 85.1214C108.855 85.067 108.572 85.1122 108.332 85.2571C108.091 85.4042 107.895 85.6487 107.744 85.9904C107.572 86.3792 107.518 86.7245 107.582 87.0263C107.648 87.3316 107.798 87.536 108.033 87.6396C108.223 87.7233 108.41 87.7275 108.597 87.652C108.786 87.5776 108.973 87.4179 109.158 87.1728L109.772 86.3621C110.11 85.9172 110.456 85.6331 110.808 85.5097C111.161 85.3897 111.526 85.4129 111.903 85.5793C112.211 85.7154 112.445 85.9217 112.606 86.1984C112.765 86.4774 112.846 86.7964 112.849 87.1553C112.85 87.5166 112.767 87.8881 112.598 88.2699C112.36 88.8071 112.054 89.1766 111.682 89.3783C111.308 89.5823 110.898 89.6633 110.452 89.6213Z" fill="#EEE9D7"/>
<path d="M109.351 94.2547L108.679 93.8637L110.233 91.2073L110.905 91.5982L109.351 94.2547ZM111.687 93.0917L111.226 93.8793L106.312 91.0178C106.088 90.8875 105.902 90.822 105.752 90.8213C105.603 90.8242 105.48 90.8658 105.382 90.946C105.285 91.0297 105.203 91.1294 105.135 91.2451C105.084 91.3319 105.047 91.4057 105.024 91.4665C105.002 91.5286 104.985 91.5783 104.972 91.6156L104.167 91.3614C104.178 91.2963 104.202 91.2101 104.238 91.1027C104.271 90.994 104.331 90.8662 104.417 90.7193C104.547 90.4969 104.723 90.3068 104.944 90.1493C105.164 89.9939 105.413 89.9035 105.692 89.878C105.97 89.8548 106.258 89.9305 106.558 90.1051L111.687 93.0917Z" fill="#EEE9D7"/>
<path d="M103.13 96.9036L105.941 99.0323L105.388 99.7582L100.633 96.1573L101.186 95.4314L101.991 96.0409L102.029 95.9917C101.872 95.6981 101.798 95.3703 101.806 95.0084C101.818 94.648 101.959 94.2894 102.231 93.9326C102.456 93.6373 102.721 93.424 103.026 93.2928C103.333 93.1631 103.669 93.1327 104.033 93.2015C104.399 93.2719 104.785 93.4602 105.189 93.7665L108.21 96.0546L107.657 96.7806L104.685 94.53C104.339 94.2674 103.989 94.1544 103.635 94.1909C103.281 94.2294 102.988 94.3994 102.759 94.7009C102.621 94.8813 102.528 95.1 102.478 95.357C102.427 95.616 102.449 95.8817 102.544 96.1542C102.638 96.4288 102.833 96.6786 103.13 96.9036Z" fill="#EEE9D7"/>
<path d="M97.8182 98.8938C98.1753 98.5505 98.5779 98.3376 99.0259 98.255C99.4758 98.1743 99.9382 98.2251 100.413 98.4074C100.89 98.5915 101.348 98.9103 101.787 99.3636C102.223 99.8132 102.524 100.278 102.69 100.757C102.856 101.236 102.889 101.698 102.788 102.142C102.688 102.587 102.457 102.983 102.096 103.33C101.817 103.598 101.552 103.764 101.3 103.826C101.048 103.893 100.822 103.908 100.623 103.873C100.424 103.842 100.265 103.813 100.144 103.785L100.088 103.839L102.13 105.945L101.472 106.578L95.9405 100.871L96.5766 100.26L97.214 100.917L97.2921 100.842C97.2649 100.718 97.2382 100.553 97.2123 100.348C97.1881 100.145 97.2138 99.9179 97.2893 99.6659C97.3666 99.4158 97.5429 99.1584 97.8182 98.8938ZM98.3015 99.5704C98.0374 99.8243 97.8808 100.108 97.8318 100.42C97.7845 100.735 97.8323 101.06 97.9751 101.397C98.1198 101.735 98.3487 102.066 98.662 102.389C98.9717 102.709 99.2892 102.943 99.6145 103.094C99.9416 103.246 100.261 103.301 100.573 103.26C100.887 103.22 101.177 103.072 101.445 102.814C101.724 102.546 101.887 102.251 101.935 101.929C101.982 101.611 101.934 101.286 101.791 100.953C101.648 100.624 101.431 100.309 101.139 100.008C100.844 99.7029 100.529 99.4708 100.195 99.3112C99.8608 99.1553 99.5304 99.0925 99.204 99.1227C98.8776 99.1566 98.5768 99.3058 98.3015 99.5704Z" fill="#EEE9D7"/>
<path d="M94.5057 101.965L98.1643 106.668L97.4406 107.226L93.7819 102.523L94.5057 101.965ZM98.4061 107.735C98.5472 107.627 98.7061 107.581 98.883 107.598C99.0578 107.617 99.1976 107.693 99.3024 107.828C99.4072 107.963 99.4468 108.117 99.4213 108.29C99.3937 108.465 99.3094 108.606 99.1683 108.715C99.0272 108.824 98.8693 108.869 98.6945 108.85C98.5176 108.833 98.3768 108.757 98.272 108.622C98.1672 108.487 98.1286 108.333 98.1562 108.158C98.1817 107.985 98.265 107.844 98.4061 107.735Z" fill="#EEE9D7"/>
<path d="M90.3287 104.725C90.7863 104.443 91.2554 104.305 91.7359 104.311C92.2142 104.317 92.6715 104.456 93.1079 104.728C93.542 105.001 93.9214 105.399 94.246 105.922C94.5733 106.449 94.7632 106.968 94.8159 107.478C94.8664 107.99 94.7875 108.46 94.5792 108.889C94.3688 109.318 94.0347 109.674 93.577 109.955C93.1193 110.236 92.6513 110.373 92.1731 110.367C91.6926 110.362 91.2346 110.221 90.7991 109.946C90.3613 109.672 89.9788 109.271 89.6515 108.744C89.327 108.222 89.1401 107.706 89.091 107.196C89.0397 106.687 89.1193 106.218 89.3298 105.789C89.538 105.36 89.871 105.006 90.3287 104.725ZM90.7623 105.423C90.4147 105.636 90.1838 105.901 90.0699 106.217C89.9559 106.533 89.935 106.868 90.0072 107.224C90.0794 107.581 90.2205 107.928 90.4305 108.266C90.6405 108.604 90.8901 108.886 91.1793 109.112C91.4685 109.337 91.7812 109.471 92.1174 109.514C92.4537 109.556 92.7957 109.47 93.1433 109.256C93.491 109.043 93.7212 108.777 93.8338 108.459C93.9464 108.141 93.9659 107.803 93.8924 107.445C93.8188 107.087 93.677 106.739 93.467 106.4C93.257 106.062 93.0081 105.781 92.7203 105.558C92.4324 105.334 92.1211 105.202 91.7862 105.162C91.4513 105.122 91.11 105.209 90.7623 105.423Z" fill="#EEE9D7"/>
<path d="M86.1802 107.039C86.3531 106.957 86.531 106.949 86.7139 107.014C86.8967 107.079 87.0294 107.198 87.1118 107.371C87.1943 107.543 87.2031 107.72 87.1383 107.902C87.0735 108.084 86.9546 108.216 86.7817 108.298C86.6087 108.379 86.4308 108.388 86.248 108.322C86.0651 108.257 85.9324 108.139 85.85 107.966C85.7954 107.852 85.7745 107.733 85.7872 107.61C85.7976 107.488 85.8368 107.375 85.9048 107.272C85.9715 107.172 86.0633 107.094 86.1802 107.039Z" fill="#EEE9D7"/>
<path d="M81.7527 108.771C82.2799 108.587 82.7779 108.553 83.2466 108.669C83.7153 108.784 84.1294 109.024 84.4888 109.388C84.8482 109.752 85.127 110.214 85.3253 110.774C85.5271 111.343 85.6002 111.882 85.5446 112.391C85.4875 112.903 85.3133 113.348 85.022 113.726C84.7292 114.107 84.329 114.386 83.8212 114.563C83.4258 114.701 83.0436 114.753 82.6745 114.717C82.3055 114.682 81.9731 114.568 81.6774 114.376C81.3816 114.184 81.1473 113.921 80.9743 113.588L81.8384 113.286C81.9948 113.519 82.2215 113.694 82.5183 113.812C82.8136 113.933 83.1516 113.927 83.5324 113.794C83.8692 113.677 84.1335 113.486 84.3253 113.223C84.5155 112.962 84.6253 112.649 84.6548 112.283C84.6827 111.921 84.6216 111.528 84.4716 111.104C84.3181 110.671 84.1161 110.318 83.8656 110.044C83.6127 109.771 83.329 109.59 83.0146 109.5C82.6979 109.411 82.3686 109.426 82.0269 109.545C81.8023 109.624 81.6123 109.734 81.4568 109.875C81.3013 110.017 81.186 110.183 81.1108 110.373C81.0356 110.564 81.0074 110.77 81.0261 110.994L80.162 111.295C80.0936 110.947 80.1088 110.607 80.2076 110.274C80.3049 109.945 80.4834 109.648 80.7431 109.382C81.0012 109.12 81.3377 108.916 81.7527 108.771Z" fill="#EEE9D7"/>
<path d="M75.8784 110.336C76.4068 110.234 76.8951 110.27 77.3432 110.444C77.7887 110.619 78.1675 110.91 78.4796 111.318C78.7892 111.726 79.0031 112.232 79.1215 112.834C79.2409 113.442 79.2346 113.993 79.1026 114.489C78.968 114.985 78.7272 115.397 78.3801 115.723C78.0305 116.051 77.5915 116.265 77.0631 116.366C76.5346 116.468 76.0477 116.431 75.6021 116.257C75.154 116.083 74.7749 115.79 74.4649 115.38C74.1523 114.969 73.9363 114.46 73.817 113.853C73.6986 113.25 73.7069 112.702 73.842 112.208C73.9745 111.715 74.2155 111.305 74.5651 110.978C74.9122 110.651 75.35 110.437 75.8784 110.336ZM76.0366 111.141C75.6352 111.218 75.325 111.384 75.1062 111.639C74.8873 111.893 74.7485 112.2 74.6897 112.558C74.6308 112.916 74.6397 113.29 74.7163 113.68C74.7929 114.07 74.9265 114.421 75.1171 114.734C75.3078 115.047 75.553 115.282 75.8529 115.44C76.1529 115.598 76.5035 115.638 76.9049 115.561C77.3063 115.484 77.6162 115.317 77.8345 115.06C78.0529 114.802 78.1912 114.493 78.2496 114.133C78.3079 113.772 78.2988 113.397 78.2222 113.007C78.1456 112.617 78.0122 112.267 77.8221 111.957C77.632 111.646 77.3872 111.413 77.0878 111.258C76.7884 111.103 76.438 111.064 76.0366 111.141Z" fill="#EEE9D7"/>
<path d="M71.849 111.216L71.8873 117.157L71.002 117.16L70.996 116.232L70.9183 116.232C70.7961 116.549 70.5971 116.796 70.3212 116.973C70.0454 117.151 69.7133 117.242 69.325 117.243C68.9316 117.244 68.6035 117.156 68.3409 116.979C68.0757 116.805 67.8684 116.559 67.7188 116.243L67.6566 116.243C67.5059 116.55 67.2783 116.795 66.974 116.976C66.6698 117.16 66.3041 117.253 65.8769 117.255C65.3437 117.257 64.9064 117.092 64.5651 116.76C64.2239 116.431 64.051 115.918 64.0465 115.219L64.0209 111.243L64.9373 111.24L64.9629 115.216C64.9657 115.654 65.0881 115.967 65.3301 116.154C65.572 116.342 65.8561 116.435 66.1823 116.434C66.6016 116.432 66.9257 116.305 67.1545 116.051C67.3833 115.8 67.4964 115.483 67.4939 115.099L67.469 111.231L68.4009 111.228L68.4271 115.297C68.4293 115.634 68.5411 115.906 68.7625 116.112C68.9838 116.32 69.268 116.423 69.6149 116.422C69.853 116.421 70.0752 116.357 70.2815 116.23C70.4852 116.103 70.6497 115.927 70.7751 115.702C70.898 115.48 70.9584 115.224 70.9566 114.932L70.9326 111.219L71.849 111.216Z" fill="#EEE9D7"/>
<path d="M58.0849 112.959C58.2722 112.999 58.4185 113.101 58.524 113.263C58.6294 113.426 58.662 113.6 58.6219 113.787C58.5817 113.973 58.4802 114.119 58.3173 114.223C58.1544 114.328 57.9793 114.36 57.792 114.319C57.6047 114.279 57.4583 114.177 57.3529 114.015C57.2475 113.852 57.2149 113.677 57.255 113.491C57.2816 113.368 57.3376 113.261 57.4231 113.171C57.5061 113.081 57.6063 113.016 57.7236 112.975C57.8379 112.937 57.9583 112.931 58.0849 112.959Z" fill="#EEE9D7"/>
<path d="M51.1453 107.767C51.6629 107.979 52.0587 108.284 52.3326 108.68C52.6065 109.077 52.7564 109.529 52.7824 110.039C52.8083 110.548 52.7087 111.077 52.4834 111.625C52.2542 112.183 51.9489 112.633 51.5675 112.975C51.1827 113.319 50.7551 113.535 50.2848 113.623C49.8111 113.713 49.325 113.656 48.8266 113.451C48.4384 113.292 48.1179 113.077 47.8651 112.806C47.6124 112.535 47.4395 112.23 47.3464 111.891C47.2533 111.552 47.2533 111.202 47.3464 110.839L48.1947 111.186C48.1565 111.463 48.2092 111.744 48.3527 112.028C48.4929 112.314 48.7498 112.534 49.1237 112.687C49.4543 112.823 49.7796 112.856 50.0993 112.786C50.4156 112.718 50.707 112.558 50.9733 112.305C51.2362 112.054 51.4529 111.72 51.6234 111.306C51.7977 110.881 51.8824 110.484 51.8775 110.115C51.8702 109.744 51.7789 109.421 51.6036 109.146C51.4259 108.87 51.1693 108.663 50.8338 108.525C50.6134 108.435 50.3976 108.391 50.1866 108.393C49.9755 108.396 49.7783 108.443 49.5949 108.535C49.4115 108.627 49.2524 108.762 49.1174 108.941L48.2691 108.593C48.4502 108.289 48.6888 108.045 48.9849 107.863C49.2776 107.682 49.6098 107.579 49.9816 107.553C50.3501 107.529 50.738 107.6 51.1453 107.767Z" fill="#EEE9D7"/>
<path d="M43.226 112.884L46.958 105.9L47.7673 106.331L44.0352 113.314L43.226 112.884Z" fill="#EEE9D7"/>
<path d="M43.4553 103.613C43.9318 103.935 44.2719 104.316 44.4756 104.759C44.6757 105.202 44.741 105.675 44.6715 106.178C44.5985 106.683 44.3912 107.187 44.0496 107.69C43.708 108.193 43.3146 108.575 42.8695 108.834C42.4208 109.095 41.957 109.22 41.4782 109.211C40.9957 109.203 40.5313 109.048 40.0849 108.747C39.8273 108.573 39.6019 108.359 39.4087 108.104C39.2155 107.85 39.081 107.557 39.0052 107.226C38.928 106.897 38.9346 106.534 39.025 106.138C39.1154 105.742 39.3163 105.315 39.6275 104.856L39.8446 104.536L43.6563 107.108L43.2134 107.76L40.1743 105.71C39.9862 105.987 39.8741 106.272 39.838 106.565C39.7999 106.857 39.84 107.134 39.9585 107.398C40.0749 107.66 40.2704 107.883 40.5451 108.069C40.8478 108.273 41.1603 108.375 41.4826 108.375C41.8014 108.375 42.1002 108.297 42.3789 108.14C42.6576 107.982 42.8889 107.768 43.0727 107.497L43.368 107.062C43.6198 106.691 43.7689 106.333 43.8153 105.988C43.858 105.644 43.8091 105.326 43.6685 105.035C43.5264 104.747 43.3019 104.499 42.995 104.292C42.7954 104.157 42.5963 104.063 42.3977 104.01C42.1955 103.957 41.997 103.948 41.8023 103.981C41.6061 104.017 41.4179 104.098 41.2377 104.226L40.6426 103.526C40.8878 103.33 41.1653 103.2 41.4751 103.136C41.7834 103.073 42.1072 103.08 42.4464 103.156C42.7842 103.235 43.1205 103.387 43.4553 103.613Z" fill="#EEE9D7"/>
<path d="M39.0488 100.16C39.328 100.414 39.5334 100.697 39.665 101.009C39.7948 101.323 39.8351 101.641 39.7858 101.962C39.7347 102.286 39.5782 102.59 39.3165 102.875C39.0862 103.126 38.8498 103.284 38.6073 103.349C38.363 103.416 38.1167 103.418 37.8683 103.355C37.6199 103.293 37.3753 103.192 37.1343 103.053C36.8898 102.914 36.6529 102.764 36.4239 102.604C36.1248 102.394 35.8842 102.222 35.7021 102.087C35.5164 101.953 35.3652 101.873 35.2486 101.847C35.13 101.819 35.021 101.859 34.9216 101.967L34.9006 101.99C34.6424 102.271 34.5192 102.56 34.531 102.857C34.5409 103.152 34.7017 103.442 35.0134 103.726C35.3366 104.021 35.6545 104.182 35.9673 104.209C36.28 104.235 36.5469 104.203 36.768 104.111L37.2012 104.925C36.8422 105.087 36.499 105.154 36.1717 105.128C35.8407 105.102 35.5344 105.015 35.2527 104.866C34.9674 104.718 34.7138 104.542 34.492 104.34C34.3505 104.211 34.2036 104.046 34.0515 103.844C33.8956 103.643 33.7788 103.412 33.7009 103.153C33.6211 102.891 33.6189 102.605 33.6943 102.293C33.7698 101.982 33.9672 101.652 34.2865 101.304L36.9351 98.421L37.6121 99.0382L37.0677 99.6308L37.1021 99.6622C37.2353 99.6091 37.4051 99.5772 37.6117 99.5666C37.8182 99.556 38.0453 99.5937 38.2929 99.6799C38.5406 99.7661 38.7925 99.926 39.0488 100.16ZM38.3907 100.669C38.1229 100.425 37.8493 100.272 37.5698 100.209C37.2883 100.144 37.0248 100.152 36.7793 100.232C36.5319 100.31 36.3244 100.44 36.1569 100.622L35.5916 101.238C35.6517 101.23 35.7436 101.256 35.8673 101.316C35.9873 101.377 36.12 101.454 36.2654 101.549C36.4072 101.643 36.5443 101.737 36.6769 101.829C36.8057 101.922 36.9109 101.997 36.9922 102.054C37.1891 102.192 37.3876 102.305 37.5877 102.393C37.7841 102.481 37.9754 102.518 38.1616 102.503C38.3442 102.487 38.5139 102.394 38.671 102.223C38.8856 101.99 38.9608 101.734 38.8967 101.456C38.829 101.177 38.6603 100.915 38.3907 100.669Z" fill="#EEE9D7"/>
<path d="M32.4032 98.7386L35.1823 96.4865L35.7619 97.1952L31.1421 100.939L30.5821 100.254L31.304 99.6693L31.2548 99.6092C30.9318 99.6912 30.6091 99.6798 30.2866 99.575C29.9621 99.4717 29.6574 99.246 29.3725 98.8976C29.1171 98.5853 28.9578 98.2601 28.8945 97.9218C28.8293 97.5852 28.8728 97.2471 29.025 96.9073C29.1752 96.5692 29.4468 96.2409 29.8398 95.9225L32.7753 93.5436L33.3549 94.2523L30.4676 96.5922C30.1047 96.8863 29.8989 97.2095 29.8503 97.5618C29.7997 97.9157 29.9086 98.2568 30.1772 98.5851C30.3622 98.8113 30.5767 98.9737 30.8207 99.0723C31.063 99.1688 31.3202 99.1918 31.5922 99.1411C31.8641 99.0905 32.1345 98.9563 32.4032 98.7386Z" fill="#EEE9D7"/>
<path d="M31.7023 92.2079L26.4704 95.0447L26.0453 94.27L26.8628 93.8267L26.8255 93.7588C26.4865 93.8015 26.1733 93.7435 25.8859 93.5848C25.5962 93.4274 25.3582 93.1787 25.1717 92.8389C24.9828 92.4946 24.9039 92.1655 24.935 91.8518C24.9627 91.537 25.0807 91.2393 25.2892 90.9587L25.2593 90.9044C24.9158 90.9172 24.5912 90.8331 24.2855 90.652C23.9777 90.4721 23.7212 90.1952 23.5161 89.8214C23.26 89.3548 23.197 88.8936 23.3271 88.438C23.455 87.9836 23.8266 87.5896 24.4419 87.256L27.9435 85.3573L28.3835 86.1593L24.882 88.0579C24.4959 88.2672 24.2778 88.5222 24.2277 88.8227C24.1775 89.1233 24.2307 89.4163 24.3873 89.7017C24.5887 90.0687 24.856 90.2927 25.1891 90.3737C25.52 90.4558 25.8546 90.4052 26.193 90.2217L29.5991 88.3748L30.0466 89.1904L26.4633 91.1333C26.1659 91.2946 25.9791 91.5208 25.9031 91.8119C25.8248 92.1042 25.869 92.4021 26.0355 92.7056C26.1499 92.9141 26.3124 93.0787 26.5231 93.1996C26.7326 93.3183 26.9666 93.3795 27.225 93.3834C27.48 93.3862 27.7357 93.3181 27.9923 93.179L31.2623 91.4059L31.7023 92.2079Z" fill="#EEE9D7"/>
<path d="M26.7588 81.4105C26.9261 81.9207 26.951 82.4077 26.8336 82.8714C26.7154 83.3327 26.4727 83.7419 26.1055 84.099C25.7374 84.4537 25.2606 84.7255 24.6749 84.9143C24.0843 85.1047 23.5339 85.1643 23.0234 85.0929C22.5122 85.019 22.0721 84.83 21.7031 84.5259C21.3332 84.2193 21.0647 83.8108 20.8974 83.3005C20.7302 82.7903 20.7057 82.3045 20.8239 81.8432C20.9412 81.3795 21.1852 80.9699 21.5557 80.6145C21.9254 80.2565 22.4056 79.9824 22.9961 79.7919C23.5818 79.6031 24.129 79.546 24.6377 79.6206C25.1457 79.6928 25.5846 79.8822 25.9544 80.1888C26.3235 80.493 26.5916 80.9002 26.7588 81.4105ZM25.9763 81.6628C25.8493 81.2752 25.6451 80.9884 25.3638 80.8024C25.0825 80.6165 24.7597 80.5158 24.3955 80.5003C24.0313 80.4848 23.6597 80.5382 23.2808 80.6604C22.9018 80.7826 22.5684 80.9565 22.2805 81.1823C21.9926 81.408 21.7888 81.6785 21.6691 81.9938C21.5493 82.3091 21.5529 82.6606 21.68 83.0482C21.807 83.4358 22.0124 83.7222 22.2962 83.9074C22.58 84.0925 22.9052 84.1925 23.2719 84.2071C23.6385 84.2218 24.0113 84.1681 24.3903 84.0459C24.7692 83.9237 25.1014 83.7501 25.3868 83.5251C25.6723 83.3002 25.8736 83.0305 25.9909 82.716C26.1082 82.4014 26.1034 82.0504 25.9763 81.6628Z" fill="#EEE9D7"/>
<path d="M21.7991 77.1966L25.3378 76.6169L25.4892 77.5175L19.6067 78.4813L19.4604 77.6111L20.3796 77.4606L20.3667 77.3842C20.0449 77.2958 19.7699 77.1265 19.5416 76.8763C19.3107 76.6266 19.1581 76.2803 19.0837 75.8376C19.017 75.4407 19.0403 75.0801 19.1537 74.7556C19.2645 74.4316 19.4707 74.1599 19.7723 73.9406C20.0713 73.7217 20.471 73.5712 20.9714 73.4892L24.7092 72.8769L24.8606 73.7775L21.1841 74.3799C20.7219 74.4556 20.382 74.6341 20.1644 74.9155C19.9441 75.1973 19.8691 75.5469 19.9392 75.9641C19.9875 76.2516 20.0932 76.4984 20.2564 76.7043C20.4191 76.9077 20.6314 77.0546 20.8932 77.145C21.155 77.2355 21.457 77.2527 21.7991 77.1966Z" fill="#EEE9D7"/>
<path d="M24.6401 68.9525C24.646 69.4475 24.5258 69.8856 24.2792 70.2669C24.0301 70.6482 23.6765 70.9479 23.2183 71.166C22.7575 71.3842 22.2113 71.4961 21.5797 71.5017C20.9533 71.5073 20.4084 71.4052 19.9451 71.1954C19.4817 70.9855 19.1222 70.6909 18.8666 70.3116C18.6109 69.9322 18.48 69.4925 18.474 68.9923C18.4694 68.6055 18.5304 68.2994 18.6571 68.0739C18.7812 67.8459 18.9241 67.6719 19.0858 67.5518C19.2448 67.4292 19.3757 67.3339 19.4784 67.2659L19.4775 67.1886L16.5421 67.2149L16.5311 66.3022L24.4831 66.2309L24.4937 67.1127L23.5773 67.1209L23.5786 67.2292C23.6882 67.2953 23.8265 67.3894 23.9937 67.5117C24.1582 67.634 24.3066 67.8093 24.4388 68.0376C24.5684 68.2659 24.6355 68.5709 24.6401 68.9525ZM23.8154 68.8361C23.811 68.47 23.7115 68.1614 23.5169 67.9105C23.3198 67.6596 23.0495 67.4699 22.7063 67.3414C22.3604 67.213 21.9623 67.1509 21.5119 67.1549C21.0667 67.1589 20.6779 67.2268 20.3455 67.3587C20.0105 67.4907 19.7514 67.6838 19.568 67.9381C19.3821 68.1925 19.2914 68.5053 19.2959 68.8766C19.3005 69.2633 19.4041 69.5847 19.6065 69.8408C19.8063 70.0943 20.0765 70.2839 20.4171 70.4098C20.7552 70.5331 21.1339 70.5929 21.5532 70.5892C21.9777 70.5854 22.3626 70.5174 22.7079 70.3854C23.0506 70.2508 23.3227 70.055 23.5241 69.7979C23.7229 69.5383 23.82 69.2177 23.8154 68.8361Z" fill="#EEE9D7"/>
<path d="M24.9982 62.6988C24.9465 63.0715 24.829 63.3999 24.6458 63.6839C24.4601 63.9675 24.2202 64.1798 23.9261 64.3206C23.6295 64.4611 23.2889 64.5043 22.9042 64.4503C22.5657 64.4027 22.3005 64.2977 22.1087 64.1354C21.9143 63.9727 21.7722 63.7719 21.6825 63.5328C21.5928 63.2938 21.537 63.036 21.5153 62.7597C21.4913 62.4804 21.4803 62.2017 21.4823 61.9234C21.4857 61.5595 21.4913 61.2649 21.499 61.0395C21.5046 60.8112 21.4849 60.6419 21.4401 60.5315C21.3957 60.4185 21.3004 60.3518 21.1542 60.3312L21.1234 60.3269C20.7439 60.2735 20.4346 60.3355 20.1957 60.5127C19.9571 60.6874 19.8089 60.9828 19.7511 61.399C19.6913 61.8304 19.7392 62.1821 19.8949 62.4538C20.0507 62.7256 20.2294 62.9264 20.431 63.0563L20.0042 63.8708C19.6665 63.6672 19.4153 63.4236 19.2507 63.1402C19.0839 62.8539 18.9818 62.5532 18.9445 62.2382C18.9049 61.9203 18.9057 61.6133 18.9468 61.3171C18.973 61.1282 19.0262 60.9144 19.1064 60.6758C19.1843 60.4343 19.3085 60.2084 19.4788 59.9981C19.6496 59.7852 19.8853 59.6219 20.1861 59.508C20.4868 59.3941 20.8719 59.3701 21.3412 59.4361L25.2339 59.9833L25.1084 60.8871L24.3084 60.7746L24.302 60.8206C24.4217 60.8999 24.5447 61.0213 24.6711 61.1848C24.7974 61.3483 24.8954 61.556 24.965 61.8078C25.0346 62.0597 25.0457 62.3567 24.9982 62.6988ZM24.2019 62.4463C24.2515 62.0889 24.2228 61.7777 24.1157 61.5128C24.0091 61.2453 23.8529 61.0333 23.6471 60.8769C23.4417 60.7179 23.2159 60.621 22.9698 60.5864L22.1389 60.4696C22.1798 60.5144 22.2104 60.6046 22.2308 60.7402C22.249 60.8729 22.2605 61.0255 22.2653 61.198C22.2679 61.3675 22.2685 61.5329 22.267 61.6941C22.2634 61.8523 22.2612 61.9809 22.2606 62.0797C22.2588 62.3189 22.2783 62.5455 22.3192 62.7595C22.3579 62.9705 22.4365 63.1482 22.5551 63.2924C22.6714 63.4337 22.845 63.5205 23.0758 63.553C23.3912 63.5973 23.6458 63.5147 23.8396 63.3051C24.0312 63.0925 24.1519 62.8063 24.2019 62.4463Z" fill="#EEE9D7"/>
<path d="M27.8592 58.604C27.8168 58.7527 27.7666 58.8817 27.7085 58.9911C27.6529 59.1012 27.6075 59.1754 27.5724 59.2136L26.8589 58.7687C26.9745 58.5712 27.0481 58.3885 27.0798 58.2207C27.1114 58.0528 27.0793 57.8868 26.9833 57.7228C26.8906 57.5569 26.7137 57.3791 26.4527 57.1893L26.051 56.8978L19.6812 57.3626L19.9525 56.4109L24.9743 56.1401L24.9912 56.0806L20.8681 53.1989L21.1394 52.2472L27.0232 56.5482C27.2885 56.7419 27.4953 56.947 27.6437 57.1635C27.7945 57.3808 27.8868 57.6095 27.9207 57.8497C27.9553 58.0874 27.9348 58.3388 27.8592 58.604Z" fill="#EEE9D7"/>
<path d="M24.8158 46.9696L24.6986 47.8133C24.5521 47.8052 24.3994 47.8211 24.2403 47.8609C24.0798 47.8974 23.9262 47.9762 23.7794 48.0975C23.6325 48.2187 23.5055 48.4008 23.3985 48.6437C23.2519 48.9762 23.2068 49.2871 23.2631 49.5766C23.3182 49.8626 23.4631 50.0572 23.6978 50.1604C23.9064 50.2522 24.1044 50.2492 24.2919 50.1514C24.4793 50.0537 24.684 49.8622 24.906 49.5769L25.4607 48.858C25.7935 48.4243 26.1344 48.1421 26.4836 48.0113C26.8304 47.8794 27.1947 47.8974 27.5764 48.0653C27.8893 48.2029 28.1296 48.4155 28.2971 48.7032C28.4657 48.9885 28.5509 49.3216 28.5528 49.7025C28.5547 50.0834 28.4626 50.4849 28.2765 50.907C28.0322 51.4612 27.7091 51.8667 27.3072 52.1235C26.9052 52.3803 26.4506 52.4549 25.9433 52.3473L26.0935 51.4674C26.4208 51.5212 26.7041 51.4755 26.9437 51.3302C27.1842 51.1826 27.3799 50.9378 27.5306 50.5959C27.7022 50.2068 27.7554 49.8614 27.6903 49.5596C27.6238 49.2545 27.4732 49.0504 27.2385 48.9471C27.0489 48.8637 26.8609 48.8599 26.6747 48.9357C26.4861 49.0104 26.2995 49.1705 26.1149 49.4159L25.5023 50.2276C25.1644 50.6731 24.8195 50.9578 24.4676 51.0818C24.1144 51.2024 23.7494 51.1798 23.3724 51.014C23.0642 50.8785 22.8295 50.6725 22.6683 50.3961C22.5082 50.1174 22.4266 49.7985 22.4235 49.4396C22.4214 49.0783 22.5046 48.7067 22.673 48.3246C22.91 47.787 23.2147 47.417 23.5869 47.2147C23.9602 47.01 24.3698 46.9283 24.8158 46.9696Z" fill="#EEE9D7"/>
<path d="M25.9091 42.3351L26.581 42.7249L25.0315 45.3841L24.3595 44.9943L25.9091 42.3351ZM23.5747 43.5021L24.0341 42.7137L28.953 45.5668C29.177 45.6967 29.3638 45.7619 29.5135 45.7622C29.6621 45.7591 29.7854 45.7173 29.8832 45.637C29.98 45.5531 30.0621 45.4532 30.1296 45.3374C30.1802 45.2506 30.2173 45.1767 30.2408 45.1158C30.262 45.0537 30.279 45.0039 30.2918 44.9666L31.0975 45.2194C31.0865 45.2846 31.0632 45.3709 31.0276 45.4783C30.9941 45.5871 30.9346 45.7149 30.849 45.8619C30.7192 46.0846 30.5439 46.275 30.323 46.4329C30.1034 46.5886 29.8541 46.6795 29.5752 46.7054C29.2977 46.7292 29.0088 46.654 28.7087 46.4799L23.5747 43.5021Z" fill="#EEE9D7"/>
<path d="M32.1255 39.6745L29.3112 37.5506L29.8632 36.8237L34.624 40.4165L34.072 41.1434L33.2661 40.5352L33.2287 40.5845C33.3862 40.8779 33.4608 41.2055 33.4525 41.5675C33.4421 41.9278 33.3012 42.2867 33.0299 42.644C32.8053 42.9397 32.5406 43.1534 32.2358 43.2851C31.9289 43.4153 31.5933 43.4463 31.229 43.3781C30.8626 43.3084 30.4769 43.1207 30.0719 42.8151L27.0469 40.5322L27.5989 39.8053L30.5744 42.0508C30.9215 42.3127 31.2717 42.4252 31.6249 42.3881C31.9797 42.3489 32.2717 42.1784 32.501 41.8766C32.6382 41.6959 32.7313 41.477 32.7802 41.22C32.8307 40.9609 32.8082 40.6952 32.7127 40.4229C32.6188 40.1485 32.423 39.899 32.1255 39.6745Z" fill="#EEE9D7"/>
<path d="M37.4339 37.6754C37.0773 38.0193 36.6751 38.2329 36.2272 38.3163C35.7775 38.3978 35.315 38.3478 34.8398 38.1663C34.3628 37.9829 33.9043 37.665 33.4642 37.2124C33.0276 36.7636 32.7259 36.2997 32.559 35.8209C32.392 35.3421 32.3585 34.8802 32.4583 34.4352C32.5582 33.9902 32.7882 33.594 33.1484 33.2466C33.427 32.9779 33.6921 32.812 33.9438 32.7489C34.1956 32.6822 34.421 32.6661 34.6201 32.7006C34.8192 32.7314 34.979 32.7606 35.0994 32.7882L35.1551 32.7345L33.1096 30.6312L33.767 29.9971L39.3081 35.6951L38.6731 36.3076L38.0345 35.651L37.9565 35.7262C37.984 35.8507 38.0109 36.0153 38.0372 36.2199C38.0617 36.4228 38.0365 36.6502 37.9614 36.9024C37.8845 37.1527 37.7087 37.4103 37.4339 37.6754ZM36.9494 36.9996C37.2131 36.7453 37.3691 36.4617 37.4176 36.149C37.4643 35.8343 37.416 35.5089 37.2726 35.1728C37.1274 34.8347 36.8978 34.5043 36.584 34.1816C36.2737 33.8626 35.9559 33.6282 35.6303 33.4785C35.303 33.3269 34.9834 33.2721 34.6716 33.3141C34.3579 33.3542 34.0674 33.5032 33.8 33.7612C33.5215 34.0298 33.3588 34.3251 33.312 34.647C33.2653 34.9653 33.3136 35.2907 33.4571 35.6232C33.6006 35.9521 33.8185 36.2668 34.1107 36.5673C34.4065 36.8715 34.7217 37.103 35.0562 37.262C35.3908 37.4174 35.7213 37.4797 36.0476 37.4489C36.374 37.4144 36.6746 37.2647 36.9494 36.9996Z" fill="#EEE9D7"/>
<path d="M40.7414 34.5978L37.0747 29.9015L37.7975 29.3425L41.4641 34.0389L40.7414 34.5978ZM36.8311 28.8346C36.6902 28.9435 36.5314 28.9896 36.3545 28.9727C36.1796 28.9543 36.0397 28.8778 35.9347 28.7433C35.8296 28.6087 35.7897 28.4549 35.815 28.2817C35.8423 28.107 35.9264 27.9651 36.0672 27.8561C36.2081 27.7472 36.366 27.7019 36.5408 27.7204C36.7177 27.7372 36.8587 27.8129 36.9637 27.9474C37.0687 28.082 37.1076 28.2366 37.0803 28.4114C37.0551 28.5845 36.972 28.7256 36.8311 28.8346Z" fill="#EEE9D7"/>
<path d="M44.9134 31.8318C44.4562 32.1137 43.9873 32.2525 43.5068 32.2482C43.0286 32.2425 42.571 32.1041 42.1342 31.8329C41.6995 31.5604 41.3195 31.1632 40.994 30.6412C40.6659 30.1147 40.475 29.5963 40.4215 29.0857C40.3701 28.5738 40.4482 28.1036 40.6557 27.675C40.8654 27.2451 41.1989 26.8891 41.6561 26.6072C42.1133 26.3253 42.581 26.1871 43.0593 26.1928C43.5398 26.1972 43.998 26.3367 44.434 26.6114C44.8723 26.8847 45.2554 27.2846 45.5836 27.811C45.9091 28.333 46.0968 28.8489 46.1468 29.3586C46.1989 29.8669 46.1202 30.336 45.9104 30.766C45.7029 31.1946 45.3706 31.5498 44.9134 31.8318ZM44.4785 31.1343C44.8258 30.9201 45.0562 30.6551 45.1696 30.3392C45.2831 30.0233 45.3034 29.6873 45.2306 29.3314C45.1578 28.9754 45.0161 28.6286 44.8055 28.2908C44.5949 27.953 44.3448 27.6715 44.0553 27.4462C43.7657 27.2209 43.4527 27.0874 43.1164 27.0458C42.7801 27.0042 42.4383 27.0905 42.091 27.3047C41.7437 27.5188 41.514 27.785 41.4019 28.1031C41.2898 28.4212 41.2709 28.7593 41.345 29.1175C41.4192 29.4756 41.5616 29.8235 41.7722 30.1613C41.9827 30.4991 42.2321 30.7795 42.5204 31.0026C42.8086 31.2258 43.1202 31.357 43.4551 31.3964C43.7901 31.4358 44.1312 31.3484 44.4785 31.1343Z" fill="#EEE9D7"/>
<path d="M49.058 29.5103C48.8852 29.5922 48.7073 29.6007 48.5243 29.5359C48.3413 29.4711 48.2084 29.3526 48.1257 29.1802C48.043 29.0079 48.0339 28.8307 48.0984 28.6486C48.1629 28.4665 48.2815 28.3346 48.4543 28.2527C48.6271 28.1708 48.805 28.1623 48.988 28.2271C49.171 28.2918 49.3038 28.4104 49.3865 28.5827C49.4413 28.6969 49.4624 28.8155 49.4499 28.9386C49.4397 29.0607 49.4007 29.1735 49.3329 29.2771C49.2664 29.3772 49.1747 29.455 49.058 29.5103Z" fill="#EEE9D7"/>
<path d="M53.4824 27.7705C52.9554 27.9554 52.4575 27.9905 51.9886 27.8759C51.5197 27.7613 51.1052 27.5223 50.7452 27.1588C50.3852 26.7953 50.1056 26.3338 49.9063 25.7744C49.7035 25.2053 49.6295 24.6662 49.6842 24.1573C49.7405 23.645 49.9139 23.1997 50.2045 22.8214C50.4967 22.4399 50.8965 22.1601 51.4039 21.9821C51.7991 21.8435 52.1812 21.7915 52.5503 21.8262C52.9194 21.8609 53.252 21.9741 53.5481 22.1657C53.8441 22.3574 54.0789 22.6198 54.2525 22.9529L53.3889 23.2558C53.2321 23.0235 53.0051 22.8487 52.7081 22.7312C52.4126 22.6105 52.0746 22.6169 51.694 22.7504C51.3574 22.8685 51.0934 23.0596 50.9021 23.3237C50.7124 23.5845 50.6031 23.8979 50.5742 24.2637C50.5469 24.6262 50.6087 25.0191 50.7594 25.4423C50.9137 25.8752 51.1163 26.2283 51.3672 26.5014C51.6207 26.7737 51.9046 26.9545 52.2191 27.044C52.5361 27.1325 52.8653 27.1169 53.2068 26.9971C53.4313 26.9184 53.6211 26.808 53.7763 26.666C53.9316 26.524 54.0466 26.3578 54.1215 26.1673C54.1963 25.9769 54.2242 25.7701 54.2051 25.547L55.0686 25.2441C55.1377 25.592 55.1231 25.9323 55.0248 26.265C54.9281 26.5944 54.7501 26.8922 54.4909 27.1582C54.2332 27.421 53.8971 27.6251 53.4824 27.7705Z" fill="#EEE9D7"/>
<path d="M59.354 26.1963C58.8258 26.2986 58.3375 26.2632 57.8891 26.0899C57.4432 25.9161 57.0639 25.6256 56.7511 25.2184C56.4409 24.8107 56.226 24.3056 56.1066 23.7032C55.9862 23.0958 55.9916 22.5442 56.1227 22.0483C56.2564 21.5519 56.4965 21.1401 56.8431 20.8128C57.1921 20.4849 57.6308 20.2698 58.159 20.1675C58.6873 20.0651 59.1743 20.1008 59.6202 20.2746C60.0685 20.4479 60.4481 20.7397 60.7589 21.1499C61.0722 21.5597 61.289 22.0682 61.4094 22.6757C61.5288 23.2781 61.5214 23.8261 61.3872 24.32C61.2556 24.8133 61.0152 25.2239 60.6662 25.5517C60.3197 25.879 59.8823 26.0939 59.354 26.1963ZM59.1945 25.3914C59.5958 25.3137 59.9056 25.1472 60.124 24.892C60.3424 24.6368 60.4807 24.3301 60.5389 23.9719C60.5972 23.6136 60.5876 23.2397 60.5104 22.8499C60.4331 22.4601 60.2989 22.109 60.1077 21.7965C59.9166 21.484 59.6709 21.249 59.3707 21.0917C59.0705 20.9344 58.7198 20.8946 58.3185 20.9723C57.9173 21.0501 57.6077 21.2178 57.3898 21.4756C57.1719 21.7333 57.0341 22.0425 56.9764 22.4033C56.9186 22.764 56.9284 23.1393 57.0057 23.529C57.0829 23.9188 57.2169 24.2687 57.4076 24.5786C57.5982 24.8886 57.8434 25.121 58.1431 25.2758C58.4428 25.4306 58.7932 25.4692 59.1945 25.3914Z" fill="#EEE9D7"/>
<path d="M63.382 25.3088L63.3335 19.3683L64.2188 19.3637L64.2264 20.2919L64.304 20.2915C64.4257 19.9737 64.6243 19.7265 64.8999 19.5497C65.1754 19.3704 65.5073 19.2797 65.8956 19.2777C66.2891 19.2757 66.6173 19.363 66.8802 19.5396C67.1456 19.7135 67.3534 19.9587 67.5036 20.2751L67.5657 20.2748C67.7159 19.9672 67.943 19.7223 68.247 19.5403C68.551 19.3557 68.9165 19.2622 69.3437 19.2601C69.8769 19.2573 70.3145 19.4214 70.6563 19.7522C70.9981 20.0805 71.1719 20.594 71.1776 21.2928L71.21 25.2686L70.2937 25.2733L70.2612 21.2975C70.2576 20.8592 70.1347 20.5465 69.8924 20.3595C69.6501 20.1725 69.3659 20.0799 69.0397 20.0816C68.6204 20.0837 68.2965 20.2117 68.0682 20.4656C67.8399 20.7169 67.7272 21.0346 67.7304 21.4188L67.762 25.2863L66.8301 25.2911L66.7968 21.2224C66.7941 20.8847 66.6818 20.6132 66.4601 20.4081C66.2384 20.2004 65.9541 20.0974 65.6072 20.0992C65.369 20.1004 65.1469 20.1647 64.9409 20.2921C64.7374 20.4195 64.5732 20.5957 64.4482 20.8206C64.3257 21.043 64.2657 21.2999 64.2681 21.5912L64.2984 25.3041L63.382 25.3088Z" fill="#EEE9D7"/>
<path d="M77.143 23.5428C76.9556 23.5026 76.8091 23.4013 76.7034 23.2389C76.5977 23.0766 76.5648 22.9021 76.6046 22.7156C76.6444 22.5291 76.7457 22.3834 76.9084 22.2786C77.0711 22.1739 77.2462 22.1416 77.4336 22.1818C77.6209 22.222 77.7675 22.3233 77.8732 22.4857C77.9788 22.6481 78.0118 22.8225 77.972 23.009C77.9456 23.1325 77.8897 23.2392 77.8044 23.3289C77.7216 23.4192 77.6215 23.4847 77.5042 23.5255C77.39 23.5642 77.2696 23.57 77.143 23.5428Z" fill="#EEE9D7"/>
<path d="M63.6946 86.6691C80.6744 90.5892 96.4416 85.0941 98.9115 74.3956C101.381 63.697 89.6189 51.8462 72.6392 47.9261C55.6594 44.006 39.8922 49.5011 37.4223 60.1996C34.9523 70.8982 46.7149 82.749 63.6946 86.6691Z" stroke="#EEE9D7" stroke-width="1.12314" stroke-miterlimit="10"/>
<path d="M37.4375 60.2049L98.9083 74.3965" stroke="#EEE9D7" stroke-width="1.12314" stroke-miterlimit="10"/>
<path d="M72.6367 47.9257L63.6949 86.657" stroke="#EEE9D7" stroke-width="1.12314" stroke-miterlimit="10"/>
<path d="M63.6961 86.6572C63.6961 86.6572 75.9139 80.4639 78.4104 69.6503C80.9069 58.8367 72.6406 47.9142 72.6406 47.9142" stroke="#EEE9D7" stroke-width="1.12314" stroke-miterlimit="10"/>
<path d="M63.6961 86.6572C63.6961 86.6572 85.1788 87.0609 88.6525 72.0149C92.1261 56.9688 72.6406 47.9142 72.6406 47.9142" stroke="#EEE9D7" stroke-width="1.12314" stroke-miterlimit="10"/>
<path d="M63.696 86.6573C63.696 86.6573 55.4297 75.7349 57.9262 64.9212C60.4227 54.1076 72.6405 47.9143 72.6405 47.9143" stroke="#EEE9D7" stroke-width="1.12314" stroke-miterlimit="10"/>
<path d="M63.7037 86.6592C63.7037 86.6592 44.2181 77.6046 47.6918 62.5586C51.1655 47.5125 72.6482 47.9162 72.6482 47.9162" stroke="#EEE9D7" stroke-width="1.12314" stroke-miterlimit="10"/>
<path d="M38.6905 69.6287C42.1793 69.5034 51.401 69.6361 66.8287 73.1978C82.2379 76.7553 90.6057 80.6712 93.6838 82.3249" stroke="#EEE9D7" stroke-width="1.12314" stroke-miterlimit="10"/>
<path d="M44.5783 77.2093C47.991 76.9929 54.5792 77.1667 65.3195 79.6463C75.9676 82.1046 81.9705 84.8132 84.9614 86.5079" stroke="#EEE9D7" stroke-width="1.12314" stroke-miterlimit="10"/>
<path d="M42.6953 52.2809C45.7761 53.9229 54.1228 57.8462 69.5504 61.408C84.9596 64.9655 94.1971 65.1141 97.6887 64.9771" stroke="#EEE9D7" stroke-width="1.12314" stroke-miterlimit="10"/>
<path d="M51.3086 48.0483C54.281 49.7388 60.2786 52.4706 71.0189 54.9502C81.667 57.4085 88.2498 57.6056 91.6809 57.3935" stroke="#EEE9D7" stroke-width="1.12314" stroke-miterlimit="10"/>
</svg>
