<svg width="201" height="73" viewBox="0 0 201 73" fill="none" xmlns="http://www.w3.org/2000/svg">
<rect x="8.15558" y="0.81934" width="194.519" height="37.9958" rx="5.5" transform="rotate(10 8.15558 0.81934)" fill="#EAD980" stroke="#2E2D22"/>
<path d="M14.4703 28.3819C14.62 28.431 14.7065 28.582 14.6794 28.7356C14.6485 28.9111 14.4897 29.0415 14.3142 29.0106L9.90325 28.2328C9.72769 28.2019 9.60116 28.0212 9.63212 27.8456C9.65921 27.692 9.79215 27.5797 9.9535 27.5629C10.9242 27.5756 11.536 27.1857 11.7604 25.9129L13.8732 13.9311C14.0434 12.9655 13.1798 12.8585 12.6286 12.6482C12.4789 12.5991 12.3666 12.4662 12.4014 12.2687C12.4285 12.1151 12.5872 11.9847 12.7666 11.9937C13.1733 11.9975 14.1737 11.9703 15.5303 11.4628C15.578 11.4486 15.6219 11.4563 15.6658 11.464C15.8194 11.4911 15.9098 11.6202 15.8827 11.7738L13.3211 26.3013C13.0928 27.596 13.5718 28.0877 14.4703 28.3819ZM19.8444 30.3478C16.7282 29.7983 16.5546 24.8802 17.2936 20.6888C18.0907 16.1681 20.0729 12.2411 23.0355 12.7635C25.4275 13.1853 26.4607 17.0783 25.5397 22.3012C24.7658 26.6901 22.8289 30.874 19.8444 30.3478ZM22.8097 13.4025C21.2735 13.1316 19.9315 15.9949 19.0183 21.1739C18.1051 26.3528 18.4024 29.4147 19.9605 29.6894C21.5186 29.9641 22.871 27.1706 23.7609 22.1233C24.6973 16.8126 24.4116 13.685 22.8097 13.4025ZM29.585 32.0653C26.4688 31.5158 26.2951 26.5977 27.0342 22.4063C27.8313 17.8857 29.8135 13.9587 32.776 14.481C35.168 14.9028 36.2012 18.7958 35.2803 24.0187C34.5064 28.4076 32.5695 32.5915 29.585 32.0653ZM32.5502 15.12C31.0141 14.8492 29.672 17.7124 28.7588 22.8914C27.8456 28.0704 28.143 31.1322 29.701 31.4069C31.2591 31.6817 32.6115 28.8881 33.5015 23.8408C34.4379 18.5302 34.1522 15.4025 32.5502 15.12ZM47.3225 17.046L47.6298 17.1001C47.7614 17.1234 47.8441 17.2963 47.755 17.4164L37.1078 33.1429C37.0149 33.2849 36.8458 33.3456 36.6702 33.3146L36.4508 33.2759C36.2752 33.2449 36.1926 33.072 36.2855 32.93L46.3636 18.1214C46.4268 18.0194 46.3326 17.9123 46.2371 17.9407C45.3438 18.2583 44.0737 18.5322 42.6318 18.3684C42.566 18.3568 42.5143 18.393 42.5247 18.4627C42.5041 18.7079 42.4796 18.9752 42.4293 19.2604C41.8875 22.3327 39.94 24.9082 38.3819 24.6335C37.1311 24.4129 36.4325 22.7285 36.7846 20.7315C37.1755 18.5151 38.6738 16.5618 40.144 16.0517C40.2396 16.0233 40.317 15.9691 40.3764 15.8891C40.6319 15.5947 41.0359 15.4849 41.409 15.5507C42.0893 15.6707 42.6212 16.3754 42.5323 17.6495C42.5388 17.7411 42.593 17.8185 42.6808 17.834C44.7526 18.0183 46.2564 17.4463 46.9521 17.0938C47.0734 17.0473 47.1909 17.0228 47.3225 17.046ZM41.2517 16.6996C41.0981 16.6725 40.9406 16.6674 40.7973 16.71C40.7056 16.7164 40.6682 16.8003 40.6966 16.8959C40.7961 17.2302 41.1924 17.549 41.8869 17.7167C41.9747 17.7321 42.0302 17.6741 42.0198 17.6044C41.8817 17.1048 41.6247 16.7654 41.2517 16.6996ZM38.6116 23.9725C39.8844 24.197 41.5222 21.8384 42.002 19.1172C42.0484 18.8539 42.091 18.6125 42.0858 18.3853C42.0974 18.3195 42.0393 18.264 41.9954 18.2562C41.1434 18.0834 40.5251 17.6123 40.2771 17.0934C40.2229 17.016 40.1351 17.0005 40.0577 17.0547C39.0793 17.8552 38.3064 19.8006 37.9465 21.8414C37.6912 23.2898 38.0411 23.8719 38.6116 23.9725ZM46.5105 25.8857C47.6078 26.0792 48.0726 27.2925 47.7399 29.1798C47.1981 32.2521 45.2687 34.8534 43.6887 34.5748C42.4378 34.3542 41.7431 32.6478 42.0952 30.6508C42.575 27.9297 44.733 25.5723 46.5105 25.8857ZM43.9442 33.8958C45.195 34.1163 46.8328 31.7577 47.3126 29.0366C47.5447 27.7199 47.2645 26.7428 46.5623 26.6189C45.0042 26.3442 43.7524 28.9519 43.2571 31.7608C43.0018 33.2092 43.3517 33.7913 43.9442 33.8958ZM68.7748 21.53C68.7477 21.6836 68.6367 21.7998 68.4754 21.8166C67.5111 21.8955 66.8593 22.2557 66.4105 24.8013L64.0965 37.9243C64.0733 38.056 63.97 38.1283 63.8384 38.1051C63.7725 38.0935 63.6925 38.0341 63.6822 37.9644L58.2831 23.0289C58.2585 22.9114 58.0752 22.9243 58.052 23.056L56.4114 32.3606C55.978 34.8184 56.1446 35.4135 57.3232 35.9154C57.473 35.9645 57.5595 36.1155 57.5285 36.291C57.4975 36.4666 57.3168 36.5931 57.1413 36.5622L53.4546 35.9121C53.279 35.8811 53.1525 35.7004 53.1834 35.5249C53.2105 35.3713 53.3473 35.237 53.5048 35.2421C54.8202 35.2252 55.1506 34.763 55.5994 32.2174L57.4645 21.64C57.6232 20.7403 57.1919 19.8497 56.2818 19.6213C56.1282 19.5942 56.0236 19.4174 56.0507 19.2638C56.0817 19.0882 56.2365 18.9798 56.4121 19.0107L58.7602 19.4248C59.0455 19.4751 59.2817 19.6751 59.3708 19.9397L63.9667 32.6293C64.0132 32.7507 64.1745 32.7339 64.1978 32.6022L65.6527 24.3509C66.0357 22.1784 65.7117 21.5782 64.635 21.1395C64.4892 21.0685 64.4027 20.9175 64.4297 20.7639C64.4607 20.5883 64.6414 20.4618 64.8389 20.4966L68.5037 21.1428C68.7012 21.1776 68.8058 21.3545 68.7748 21.53ZM73.4557 35.1171C73.6093 35.1441 73.6958 35.2952 73.6248 35.441C72.6247 37.7763 71.3754 39.3436 69.159 38.9527C66.9865 38.5697 66.0722 36.0552 66.6913 32.5441C67.3259 28.9451 69.2786 26.5968 71.5828 27.0031C73.7115 27.3784 74.1469 30.1705 73.9909 31.5685C73.947 31.9454 73.6992 32.1959 73.4359 32.1494L68.608 31.2981C68.4325 31.2672 68.2518 31.3937 68.2428 31.5731C68.0249 33.3223 67.9682 34.2852 68.3995 35.5605C68.7379 36.5931 69.3369 37.1739 70.1708 37.321C71.3778 37.5338 72.4774 36.6869 73.2091 35.232C73.2466 35.1481 73.3459 35.0977 73.4557 35.1171ZM68.817 30.4978L71.4943 30.9699C72.021 31.0627 72.23 30.6471 72.2455 30.1746C72.2556 28.7056 71.947 28.0177 70.9156 27.8358C69.972 27.6694 69.1111 28.4453 68.5756 30.0706C68.5188 30.2642 68.6195 30.463 68.817 30.4978ZM85.0427 29.648L86.7105 29.9421C86.9519 29.9846 87.0888 30.235 86.9804 30.4648C86.943 30.5487 86.8397 30.621 86.7442 30.6494C86.4576 30.7347 86.2098 30.9851 85.8962 31.6086L81.3538 40.9446C81.3125 41.0505 81.1912 41.097 81.0634 41.0518C80.9795 41.0144 80.9252 40.9369 80.9188 40.8453L80.2776 34.2156C80.2608 34.0543 80.0413 34.0156 79.9704 34.1615L76.7234 40.1282C76.6602 40.2301 76.5389 40.2766 76.433 40.2353C76.3491 40.1979 76.2949 40.1205 76.2884 40.0288L75.2543 29.9811C75.1651 28.9471 75.0141 28.649 74.7443 28.5109C74.6203 28.4438 74.5558 28.2966 74.5829 28.143C74.6215 27.9236 74.7945 27.8409 74.9701 27.8719L77.6034 28.3362C77.8009 28.3711 77.9236 28.5737 77.8668 28.7673C77.8217 28.8951 77.6887 29.0075 77.5532 29.0062C77.0911 29.0605 76.8549 29.2451 76.8162 29.4645C76.7736 29.7059 76.815 29.9847 76.8563 30.2636L77.4342 36.6105C77.4471 36.7938 77.6847 36.8583 77.7815 36.6944L79.8359 32.8706C79.974 32.6008 80.0282 32.2936 80.0165 31.9748L79.9454 30.9666C79.8575 29.7971 79.6625 29.4912 79.1991 29.2964C79.0312 29.2216 78.9486 29.0486 79.0054 28.855C79.0544 28.7052 79.2274 28.6226 79.4029 28.6535L82.4532 29.1914C82.6288 29.2223 82.7734 29.4289 82.6947 29.6186C82.6457 29.7684 82.5166 29.8587 82.3591 29.8536C81.6814 29.8472 81.5485 29.9596 81.4827 30.3326C81.4169 30.7057 81.4389 31.0942 81.5191 31.9229L82.0129 37.4631C82.0375 37.5806 82.1911 37.6077 82.2543 37.5057L84.6933 32.5279C85.0327 31.8863 85.2508 31.2912 85.3243 30.8742C85.3707 30.6109 85.27 30.4121 84.8647 30.2728C84.7149 30.2237 84.6104 30.0469 84.6633 29.8752C84.7162 29.7035 84.8891 29.6209 85.0427 29.648ZM100.91 44.2797L91.4515 42.612C91.2759 42.581 91.1674 42.4261 91.1984 42.2506C91.2061 42.2067 91.2397 42.1447 91.2694 42.1047L101.666 28.4384C101.789 28.2564 101.7 27.9918 101.481 27.9531L98.0352 27.3456C95.4676 26.8929 94.8005 28.1102 94.2405 30.3873C94.2173 30.519 94.0883 30.6094 93.9566 30.5862C93.8249 30.563 93.7345 30.4339 93.7358 30.2984L94.1729 26.2799C94.2051 25.9688 94.5187 25.73 94.8479 25.788L104.218 27.4403C104.394 27.4712 104.502 27.6261 104.471 27.8017C104.464 27.8456 104.452 27.9114 104.422 27.9514L94.0911 41.6293C93.9685 41.8113 94.0576 42.0759 94.277 42.1146L98.4246 42.8459C99.456 43.0278 100.161 42.8805 100.703 42.501C101.37 42.053 101.738 41.1222 102.293 39.7719C102.334 39.6661 102.459 39.5976 102.569 39.617C102.723 39.6441 102.809 39.7951 102.782 39.9487L101.569 43.8756C101.497 44.157 101.217 44.3339 100.91 44.2797ZM110.361 41.6244C110.514 41.6515 110.601 41.8025 110.53 41.9484C109.53 44.2836 108.28 45.8509 106.064 45.4601C103.891 45.077 102.977 42.5626 103.596 39.0514C104.231 35.4525 106.184 33.1042 108.488 33.5105C110.616 33.8858 111.052 36.6778 110.896 38.0758C110.852 38.4527 110.604 38.7032 110.341 38.6568L105.513 37.8055C105.337 37.7745 105.157 37.9011 105.148 38.0805C104.93 39.8296 104.873 40.7926 105.304 42.0679C105.643 43.1005 106.242 43.6813 107.076 43.8283C108.283 44.0411 109.382 43.1942 110.114 41.7393C110.152 41.6554 110.251 41.6051 110.361 41.6244ZM105.722 37.0051L108.399 37.4772C108.926 37.5701 109.135 37.1544 109.15 36.682C109.161 35.213 108.852 34.525 107.821 34.3431C106.877 34.1767 106.016 34.9527 105.481 36.5779C105.424 36.7715 105.525 36.9703 105.722 37.0051ZM118.684 44.2007C118.411 45.8724 118.022 47.5686 116.376 47.2784C115.805 47.1778 115.366 46.7157 115.335 45.7372C115.326 45.532 115.093 45.4456 114.956 45.5798C113.921 46.5739 113.084 46.6979 112.382 46.5741C111.241 46.3729 110.625 45.2461 110.919 43.5783C111.155 42.2397 111.9 41.3527 112.718 40.8182C113.334 40.4064 114.073 40.0616 116.087 39.4211C116.278 39.3642 116.419 39.208 116.45 39.0325L116.639 37.9572C116.918 36.3772 116.431 35.5446 115.619 35.4015C114.873 35.2699 114.224 35.7437 114.104 36.424C114.023 36.8849 114.113 37.0139 114.024 37.5187C113.939 38.0014 113.689 38.523 113.008 38.403C112.503 38.314 112.172 37.7577 112.292 37.0774C112.644 35.0805 114.872 34.6361 115.947 34.8257C116.978 35.0076 117.607 35.5483 117.918 36.3499C118.226 37.1734 118.195 37.7337 117.924 39.2698L117.061 44.1635C116.856 45.3265 116.942 45.8622 117.337 45.9319C117.82 46.017 118.148 45.0566 118.307 44.1568C118.344 44.0729 118.403 43.9929 118.495 43.9864C118.605 44.0058 118.681 44.0871 118.684 44.2007ZM115.722 43.1581L116.218 40.3492C116.252 40.1517 116.074 40.0071 115.883 40.0639C114.23 40.587 113.003 41.2532 112.682 43.0746C112.446 44.4132 112.887 45.1244 113.589 45.2483C114.532 45.4146 115.54 44.1895 115.722 43.1581ZM122.716 47.4686C122.866 47.5177 122.953 47.6687 122.926 47.8223C122.895 47.9979 122.714 48.1244 122.538 48.0934L118.874 47.4472C118.698 47.4163 118.571 47.2356 118.602 47.06C118.629 46.9064 118.762 46.7941 118.924 46.7773C119.894 46.79 120.177 46.3421 120.402 45.0693L122.495 33.1972C122.688 32.0999 122.208 31.7437 121.825 31.6082C121.675 31.5592 121.567 31.4043 121.598 31.2288C121.625 31.0751 121.779 30.9667 121.941 30.9499C122.347 30.9537 123.172 30.8955 124.224 30.4474C124.272 30.4332 124.342 30.4229 124.382 30.4526C124.488 30.4939 124.538 30.5933 124.519 30.703L121.918 45.4499C121.69 46.7446 121.796 47.1706 122.716 47.4686ZM131.5 46.4605C131.228 48.1322 130.838 49.8284 129.192 49.5382C128.622 49.4376 128.183 48.9756 128.152 47.9971C128.143 47.7919 127.909 47.7054 127.772 47.8397C126.737 48.8338 125.901 48.9578 125.198 48.834C124.057 48.6328 123.441 47.5059 123.735 45.8381C123.971 44.4995 124.716 43.6126 125.534 43.0781C126.15 42.6662 126.89 42.3215 128.903 41.6809C129.094 41.6241 129.235 41.4679 129.266 41.2923L129.456 40.217C129.734 38.637 129.247 37.8045 128.435 37.6613C127.689 37.5298 127.04 38.0036 126.92 38.6839C126.839 39.1447 126.929 39.2738 126.84 39.7785C126.755 40.2613 126.505 40.7828 125.824 40.6629C125.32 40.5739 124.988 40.0176 125.108 39.3373C125.46 37.3403 127.688 36.896 128.763 37.0856C129.795 37.2674 130.423 37.8082 130.735 38.6098C131.042 39.4333 131.011 39.9935 130.74 41.5296L129.877 46.4233C129.672 47.5864 129.759 48.1221 130.154 48.1917C130.637 48.2769 130.964 47.3164 131.123 46.4167C131.16 46.3328 131.22 46.2528 131.311 46.2463C131.421 46.2656 131.497 46.3469 131.5 46.4605ZM128.538 45.418L129.034 42.609C129.069 42.4115 128.89 42.267 128.699 42.3238C127.046 42.8468 125.82 43.5131 125.499 45.3345C125.263 46.6731 125.703 47.3843 126.405 47.5081C127.349 47.6745 128.357 46.4494 128.538 45.418ZM140.017 50.474C140.163 50.5449 140.249 50.696 140.222 50.8496C140.188 51.0471 140.007 51.1736 139.809 51.1388L136.605 50.5738C136.43 50.5429 136.303 50.3622 136.334 50.1866C136.361 50.033 136.494 49.9207 136.656 49.9039C137.521 49.8754 137.744 49.5074 138.026 47.9055L138.878 43.0776C139.191 41.3001 138.937 40.3049 137.993 40.1385C137.071 39.976 135.733 40.894 135.477 42.3423L134.603 47.3018C134.32 48.9038 134.404 49.3259 135.207 49.6485C135.353 49.7195 135.44 49.8705 135.413 50.0241C135.382 50.1997 135.201 50.3262 135.025 50.2952L131.734 49.7148C131.558 49.6839 131.432 49.5032 131.463 49.3276C131.494 49.152 131.626 49.0397 131.784 49.0449C132.635 48.9686 132.78 48.6549 133.067 47.031L134.112 41.1059C134.305 40.0086 133.821 39.6744 133.437 39.5389C133.248 39.4602 133.147 39.2614 133.226 39.0716C133.293 38.9477 133.418 38.8793 133.554 38.8806C133.986 38.8663 134.811 38.8081 135.837 38.3781C135.914 38.3239 136.024 38.3432 136.1 38.4245C136.133 38.4981 136.143 38.5678 136.131 38.6337L135.899 39.9503C135.872 40.104 136.08 40.2085 136.191 40.0923C137.12 39.0569 137.908 38.6979 138.873 38.8682C140.365 39.1313 140.89 40.6493 140.418 43.3265L139.562 48.1763C139.28 49.7783 139.314 50.101 140.017 50.474ZM150.021 49.7489C149.752 51.3986 149.363 53.0948 147.717 52.8046C147.146 52.704 146.725 52.2678 146.687 51.3332C146.674 51.1499 146.44 51.0635 146.303 51.1977C145.578 51.9749 144.842 52.2977 143.964 52.1429C141.945 51.7869 140.976 49.3306 141.552 46.0608C142.191 42.44 144.409 39.867 146.516 40.2385C147.13 40.3468 147.538 40.5998 147.968 41.2413C148.077 41.3961 148.29 41.3432 148.321 41.1676L148.905 37.854C149.095 36.7787 148.614 36.4225 148.231 36.287C148.037 36.2302 147.962 36.0134 148.041 35.8236C148.086 35.6958 148.211 35.6274 148.369 35.6325C148.776 35.6363 149.604 35.5562 150.63 35.1262C150.708 35.072 150.818 35.0913 150.89 35.1946C150.926 35.2462 150.936 35.3159 150.925 35.3817L148.406 49.6678C148.201 50.8309 148.28 51.4104 148.675 51.4801C149.157 51.5652 149.489 50.5828 149.669 49.687C149.685 49.5992 149.74 49.5411 149.832 49.5346C149.946 49.532 150.04 49.6392 150.021 49.7489ZM146.85 49.5066L147.852 43.8229C148.089 42.4843 147.424 41.1226 146.436 40.9484C145.053 40.7047 143.821 42.4333 143.31 45.33C142.757 48.4681 143.385 50.6831 144.921 50.9539C145.82 51.1126 146.703 50.3405 146.85 49.5066ZM167.726 44.2272L169.394 44.5213C169.635 44.5639 169.772 44.8143 169.663 45.0441C169.626 45.128 169.523 45.2003 169.427 45.2287C169.141 45.3139 168.893 45.5644 168.579 46.1879L164.037 55.5239C163.995 55.6297 163.874 55.6762 163.746 55.631C163.662 55.5936 163.608 55.5162 163.602 55.4245L162.961 48.7949C162.944 48.6335 162.724 48.5948 162.653 48.7407L159.406 54.7074C159.343 54.8094 159.222 54.8559 159.116 54.8146C159.032 54.7772 158.978 54.6997 158.971 54.6081L157.937 44.5603C157.848 43.5264 157.697 43.2282 157.427 43.0901C157.303 43.023 157.239 42.8759 157.266 42.7223C157.305 42.5028 157.478 42.4202 157.653 42.4511L160.286 42.9155C160.484 42.9503 160.607 43.1529 160.55 43.3466C160.505 43.4744 160.372 43.5867 160.236 43.5854C159.774 43.6397 159.538 43.8243 159.499 44.0438C159.457 44.2852 159.498 44.564 159.539 44.8428L160.117 51.1898C160.13 51.3731 160.368 51.4376 160.464 51.2736L162.519 47.4499C162.657 47.1801 162.711 46.8728 162.7 46.554L162.628 45.5459C162.54 44.3764 162.345 44.0705 161.882 43.8756C161.714 43.8008 161.632 43.6278 161.688 43.4342C161.737 43.2845 161.91 43.2018 162.086 43.2328L165.136 43.7706C165.312 43.8016 165.456 44.0081 165.378 44.1979C165.329 44.3476 165.2 44.438 165.042 44.4328C164.364 44.4265 164.231 44.5388 164.166 44.9119C164.1 45.2849 164.122 45.6735 164.202 46.5022L164.696 52.0424C164.72 52.1598 164.874 52.1869 164.937 52.0849L167.376 47.1071C167.716 46.4655 167.934 45.8704 168.007 45.4535C168.054 45.1901 167.953 44.9914 167.548 44.852C167.398 44.803 167.293 44.6262 167.346 44.4545C167.399 44.2828 167.572 44.2001 167.726 44.2272ZM171.463 56.9916C169.246 56.6008 167.957 53.7715 168.584 50.2164C169.207 46.6833 171.271 44.6035 173.751 45.0407C175.989 45.4354 177.295 48.0414 176.672 51.5745C176.045 55.1296 173.942 57.4289 171.463 56.9916ZM174.906 51.9646C175.177 50.4285 175.514 46.0757 173.276 45.681C172.003 45.4566 170.88 46.8199 170.431 49.3655C170.164 50.8797 169.611 55.9411 171.916 56.3474C173.254 56.5835 174.383 54.9272 174.906 51.9646ZM180.239 58.5391C178.022 58.1483 176.734 55.3189 177.361 51.7639C177.983 48.2308 180.047 46.1509 182.527 46.5882C184.765 46.9829 186.071 49.5889 185.448 53.122C184.821 56.6771 182.718 58.9763 180.239 58.5391ZM183.682 53.5121C183.953 51.976 184.29 47.6232 182.052 47.2285C180.779 47.0041 179.656 48.3674 179.208 50.913C178.941 52.4272 178.388 57.4886 180.692 57.8949C182.03 58.1309 183.16 56.4746 183.682 53.5121ZM188.833 59.1267C188.982 59.1758 189.069 59.3268 189.042 59.4804C189.011 59.656 188.83 59.7825 188.655 59.7515L184.99 59.1053C184.814 59.0744 184.688 58.8937 184.719 58.7181C184.746 58.5645 184.879 58.4522 185.04 58.4354C186.011 58.4482 186.294 58.0002 186.518 56.7274L188.611 44.8553C188.805 43.758 188.325 43.4018 187.941 43.2663C187.791 43.2173 187.683 43.0624 187.714 42.8869C187.741 42.7332 187.896 42.6248 188.057 42.608C188.464 42.6118 189.289 42.5536 190.341 42.1055C190.388 42.0913 190.458 42.081 190.498 42.1107C190.604 42.152 190.654 42.2514 190.635 42.3611L188.035 57.108C187.806 58.4027 187.912 58.8287 188.833 59.1267Z" fill="#2E2D22"/>
<path d="M88.8004 45.5352C99.637 47.446 110.47 49.3497 121.234 51.6448C129.406 53.3871 153.857 58.8078 145.598 57.54C134.032 55.7647 122.344 54.0507 110.891 51.6621C110.043 51.4852 108.206 51.7697 108.399 50.9251C108.596 50.0621 110.172 50.8793 111.055 50.947C113.661 51.1471 116.258 51.4602 118.858 51.7278C133.657 53.2509 139.059 54.0891 153.867 55.521" stroke="#2E2D22" stroke-linecap="round"/>
</svg>
