<svg viewBox="0 0 74 76" fill="none" xmlns="http://www.w3.org/2000/svg">
<path d="M13.6506 16.7957C14.7804 15.6752 20.5764 10.8829 20.5764 10.8829L25.267 8.19846L30.6543 6.31285C38.0792 5.8955 39.2166 6.09278 43.1777 7.34235C48.6644 9.07319 53.9318 13.0631 58.5142 16.486C62.6689 19.5895 64.5583 23.6628 65.6349 28.6032C67.5368 37.3304 67.4057 42.6032 63.763 50.6528C61.2897 56.1184 56.3674 64.0461 50.6411 66.5643C42.0363 70.3484 30.571 70.3463 22.5153 65.2717C13.71 59.7248 6.07276 48.6018 6.60588 37.844C6.80179 33.8908 8.40382 29.867 9.43761 26.0666C10.4138 22.4781 10.9772 19.4472 13.6506 16.7957Z" fill="#EAD980"/>
<path d="M30.2814 23.2823C28.9533 21.2488 28.1242 26.5954 27.9313 27.4457C27.8595 27.7624 29.6385 24.0346 30.0124 23.2768C30.8445 21.5899 28.6765 29.1822 28.5853 29.5175" stroke="#2E2D22" stroke-width="1.76377" stroke-linecap="round"/>
<path d="M49.4516 26.6706C48.9087 27.8519 47.945 28.7721 47.4043 29.9693C46.3076 32.3973 48.6977 28.2967 49.0545 27.8816C50.0135 26.7659 47.2599 33.4839 47.6461 32.0643C47.9212 31.0529 50.6939 25.6188 48.8348 28.9379" stroke="#2E2D22" stroke-width="1.76377" stroke-linecap="round"/>
<path d="M18.75 29.8848C16.1087 39.5947 19.6489 49.6689 29.8565 52.9621C35.1306 54.6636 41.0109 56.4625 46.3356 54.2995C51.1648 52.3378 56.0555 50.4683 58.3287 45.5216" stroke="#2E2D22" stroke-width="1.76377" stroke-linecap="round"/>
</svg>
